<?xml version="1.0" encoding="utf-8"?>
<!-- Generator: Adobe Illustrator 19.0.0, SVG Export Plug-In . SVG Version: 6.00 Build 0)  -->
<svg version="1.1"
	 id="svg2" inkscape:export-ydpi="215.44792" inkscape:export-filename="/home/byron/art/cards/final/PNGs/8_of_spades.png" sodipodi:docname="8_of_spades.svg" inkscape:export-xdpi="215.44792" inkscape:version="0.48.0 r9654" xmlns:dc="http://purl.org/dc/elements/1.1/" xmlns:cc="http://creativecommons.org/ns#" xmlns:rdf="http://www.w3.org/1999/02/22-rdf-syntax-ns#" xmlns:svg="http://www.w3.org/2000/svg" xmlns:sodipodi="http://sodipodi.sourceforge.net/DTD/sodipodi-0.dtd" xmlns:inkscape="http://www.inkscape.org/namespaces/inkscape"
	 xmlns="http://www.w3.org/2000/svg" xmlns:xlink="http://www.w3.org/1999/xlink" x="0px" y="0px" viewBox="-213 299.2 167.1 242.7"
	 style="enable-background:new -213 299.2 167.1 242.7;" xml:space="preserve">
<style type="text/css">
	.st0{fill:#F8C884;stroke:#000000;stroke-width:0.5;}
	.st1{fill:#187B3A;}
	.st2{font-family:'ArialMT';}
	.st3{font-size:32px;}
	.st4{fill:#12351A;}
	.st5{fill:#1D933A;}
	.st6{font-family:'AdobeMingStd-Light-B5pc-H';}
	.st7{font-size:12px;}
</style>
<sodipodi:namedview  id="namedview39" inkscape:current-layer="svg2" inkscape:window-maximized="1" inkscape:window-y="25" inkscape:window-x="0" inkscape:window-height="977" inkscape:window-width="1680" inkscape:pageshadow="2" inkscape:pageopacity="0" inkscape:cy="157.08206" inkscape:cx="106.02254" inkscape:zoom="2.4336873" showgrid="false" guidetolerance="10" gridtolerance="10" objecttolerance="10" borderopacity="1" pagecolor="#ffffff" bordercolor="#666666">
	</sodipodi:namedview>
<g id="Layer_x0020_1">
	<path id="path5" class="st0" d="M-46.2,534.8c0,3.8-3.1,6.9-6.9,6.9h-152.9c-3.8,0-6.9-3.1-6.9-6.9V306.3c0-3.8,3.1-6.9,6.9-6.9
		H-53c3.8,0,6.9,3.1,6.9,6.9V534.8z"/>
	<g id="g7">
		<g id="g9">
		</g>
	</g>
	<g id="g15">
	</g>
	<g id="g19">
	</g>
	<g id="g23">
		<g id="g25">
		</g>
	</g>
	<g id="g31">
		<g id="g33">
		</g>
	</g>
</g>
<text transform="matrix(1 0 0 1 -204.4533 327.2363)" class="st1 st2 st3">8</text>
<g id="layer1-7" transform="matrix(1.5085945,0,0,1.3793253,16.929104,45.065897)">
	<path id="sl" sodipodi:nodetypes="cccccccccc" inkscape:connector-curvature="0" class="st4" d="M-133.2,220
		c-0.2-4.1-7.7-11.7-8-13.6c-0.2,1.9-7.7,9.5-8,13.6c-0.2,2.9,1.7,4.1,3.4,4.1c1.8,0,3.4-2.8,3.9-3.3c0.2,0.7-1.6,6.7-2.2,6.7h5.8
		c-0.6,0-2.4-6-2.2-6.7c0.5,0.5,1.8,3.3,3.9,3.3C-134.9,224.1-133,222.9-133.2,220z"/>
</g>
<g id="layer1-7-88" transform="matrix(2.6486789,0,0,2.4217176,54.61089,44.565995)">
	<path id="sl-4" sodipodi:nodetypes="cccccccccc" inkscape:connector-curvature="0" class="st4" d="M-72.4,126.7
		c-0.2-4.1-7.7-11.7-8-13.6c-0.2,1.9-7.7,9.5-8,13.6c-0.2,2.9,1.7,4.1,3.4,4.1c1.8,0,3.4-2.8,3.9-3.3c0.2,0.7-1.6,6.7-2.2,6.7h5.8
		c-0.6,0-2.4-6-2.2-6.7c0.5,0.5,1.8,3.3,3.9,3.3C-74.1,130.7-72.3,129.5-72.4,126.7z"/>
</g>
<text transform="matrix(-1 0 0 -1 -54.0225 514.3474)" class="st5 st2 st3">8</text>
<g id="layer1-7-3" transform="matrix(-1.5085945,0,0,-1.3793253,150.22511,198.04408)">
	<path id="sl-1" sodipodi:nodetypes="cccccccccc" inkscape:connector-curvature="0" class="st4" d="M149.2-213.8
		c-0.2-4.1-7.7-11.7-8-13.6c-0.2,1.9-7.7,9.5-8,13.6c-0.2,2.9,1.7,4.1,3.4,4.1c1.8,0,3.4-2.8,3.9-3.3c0.2,0.7-1.6,6.7-2.2,6.7h5.8
		c-0.6,0-2.4-6-2.2-6.7c0.5,0.5,1.8,3.3,3.9,3.3C147.5-209.8,149.3-211,149.2-213.8z"/>
</g>
<g id="layer1-7-88-7" transform="matrix(-2.6486789,0,0,-2.4217176,54.65613,198.57132)">
	<path id="sl-4-5" sodipodi:nodetypes="cccccccccc" inkscape:connector-curvature="0" class="st4" d="M88.4-120.5
		c-0.2-4.1-7.7-11.7-8-13.6c-0.2,1.9-7.7,9.5-8,13.6c-0.2,2.9,1.7,4.1,3.4,4.1c1.8,0,3.4-2.8,3.9-3.3c0.2,0.7-1.6,6.7-2.2,6.7h5.8
		c-0.6,0-2.4-6-2.2-6.7c0.5,0.5,1.8,3.3,3.9,3.3C86.7-116.4,88.6-117.6,88.4-120.5z"/>
</g>
<g id="layer1-7-88-6" transform="matrix(2.6486789,0,0,2.4217176,54.694697,119.06732)">
	<path id="sl-4-8" sodipodi:nodetypes="cccccccccc" inkscape:connector-curvature="0" class="st4" d="M-72.4,126.7
		c-0.2-4.1-7.7-11.7-8-13.6c-0.2,1.9-7.7,9.5-8,13.6c-0.2,2.9,1.7,4.1,3.4,4.1c1.8,0,3.4-2.8,3.9-3.3c0.2,0.7-1.6,6.7-2.2,6.7h5.8
		c-0.6,0-2.4-6-2.2-6.7c0.5,0.5,1.8,3.3,3.9,3.3C-74.1,130.7-72.3,129.5-72.4,126.7z"/>
</g>
<g id="layer1-7-88-68" transform="matrix(2.6486789,0,0,2.4217176,112.49781,44.366905)">
	<path id="sl-4-84" sodipodi:nodetypes="cccccccccc" inkscape:connector-curvature="0" class="st4" d="M-72.4,126.7
		c-0.2-4.1-7.7-11.7-8-13.6c-0.2,1.9-7.7,9.5-8,13.6c-0.2,2.9,1.7,4.1,3.4,4.1c1.8,0,3.4-2.8,3.9-3.3c0.2,0.7-1.6,6.7-2.2,6.7h5.8
		c-0.6,0-2.4-6-2.2-6.7c0.5,0.5,1.8,3.3,3.9,3.3C-74.1,130.7-72.3,129.5-72.4,126.7z"/>
</g>
<g id="layer1-7-88-7-3" transform="matrix(-2.6486789,0,0,-2.4217176,112.54305,198.37223)">
	<path id="sl-4-5-1" sodipodi:nodetypes="cccccccccc" inkscape:connector-curvature="0" class="st4" d="M88.4-120.5
		c-0.2-4.1-7.7-11.7-8-13.6c-0.2,1.9-7.7,9.5-8,13.6c-0.2,2.9,1.7,4.1,3.4,4.1c1.8,0,3.4-2.8,3.9-3.3c0.2,0.7-1.6,6.7-2.2,6.7h5.8
		c-0.6,0-2.4-6-2.2-6.7c0.5,0.5,1.8,3.3,3.9,3.3C86.7-116.4,88.6-117.6,88.4-120.5z"/>
</g>
<g id="layer1-7-88-6-4" transform="matrix(2.6486789,0,0,2.4217176,112.58162,118.86823)">
	<path id="sl-4-8-9" sodipodi:nodetypes="cccccccccc" inkscape:connector-curvature="0" class="st4" d="M-72.4,126.7
		c-0.2-4.1-7.7-11.7-8-13.6c-0.2,1.9-7.7,9.5-8,13.6c-0.2,2.9,1.7,4.1,3.4,4.1c1.8,0,3.4-2.8,3.9-3.3c0.2,0.7-1.6,6.7-2.2,6.7h5.8
		c-0.6,0-2.4-6-2.2-6.7c0.5,0.5,1.8,3.3,3.9,3.3C-74.1,130.7-72.3,129.5-72.4,126.7z"/>
</g>
<g id="layer1-7-88-688" transform="matrix(2.6486789,0,0,2.4217176,83.494697,83.937953)">
	<path id="sl-4-4" sodipodi:nodetypes="cccccccccc" inkscape:connector-curvature="0" class="st4" d="M-72.4,126.7
		c-0.2-4.1-7.7-11.7-8-13.6c-0.2,1.9-7.7,9.5-8,13.6c-0.2,2.9,1.7,4.1,3.4,4.1c1.8,0,3.4-2.8,3.9-3.3c0.2,0.7-1.6,6.7-2.2,6.7h5.8
		c-0.6,0-2.4-6-2.2-6.7c0.5,0.5,1.8,3.3,3.9,3.3C-74.1,130.7-72.3,129.5-72.4,126.7z"/>
</g>
<g id="layer1-7-88-688-6" transform="matrix(-2.6486789,0,0,-2.4217176,83.165993,161.80325)">
	<path id="sl-4-4-8" sodipodi:nodetypes="cccccccccc" inkscape:connector-curvature="0" class="st4" d="M88.4-120.5
		c-0.2-4.1-7.7-11.7-8-13.6c-0.2,1.9-7.7,9.5-8,13.6c-0.2,2.9,1.7,4.1,3.4,4.1c1.8,0,3.4-2.8,3.9-3.3c0.2,0.7-1.6,6.7-2.2,6.7h5.8
		c-0.6,0-2.4-6-2.2-6.7c0.5,0.5,1.8,3.3,3.9,3.3C86.7-116.4,88.6-117.6,88.4-120.5z"/>
</g>
<text transform="matrix(1 0 0 1 -174.0933 309.8625)" class="st6 st7">spade</text>
</svg>
