<?xml version="1.0" encoding="utf-8"?>
<!-- Generator: Adobe Illustrator 19.0.0, SVG Export Plug-In . SVG Version: 6.00 Build 0)  -->
<svg version="1.1"
	 id="svg2" inkscape:export-ydpi="215.44792" inkscape:export-filename="/home/byron/art/cards/final/PNGs/red_joker.png" sodipodi:docname="red_joker.svg" inkscape:export-xdpi="215.44792" inkscape:version="0.48.0 r9654" xmlns:dc="http://purl.org/dc/elements/1.1/" xmlns:cc="http://creativecommons.org/ns#" xmlns:rdf="http://www.w3.org/1999/02/22-rdf-syntax-ns#" xmlns:svg="http://www.w3.org/2000/svg" xmlns:sodipodi="http://sodipodi.sourceforge.net/DTD/sodipodi-0.dtd" xmlns:inkscape="http://www.inkscape.org/namespaces/inkscape"
	 xmlns="http://www.w3.org/2000/svg" xmlns:xlink="http://www.w3.org/1999/xlink" x="0px" y="0px" viewBox="-213 299.2 167.1 242.7"
	 style="enable-background:new -213 299.2 167.1 242.7;" xml:space="preserve">
<style type="text/css">
	.st0{fill:#FFD18D;stroke:#000000;stroke-width:0.5;}
	.st1{fill:#DF0000;}
	.st2{font-family:'Arial-BoldItalicMT';}
	.st3{font-size:32px;}
	.st4{font-size:38.4px;}
	.st5{fill:#EDC48A;stroke:#000000;stroke-miterlimit:10;}
	.st6{font-family:'AdobeMingStd-Light-B5pc-H';}
	.st7{font-size:24px;}
</style>
<sodipodi:namedview  id="namedview39" inkscape:current-layer="svg2" inkscape:window-maximized="1" inkscape:window-y="25" inkscape:window-x="0" inkscape:window-height="977" inkscape:window-width="1680" inkscape:pageshadow="2" inkscape:pageopacity="0" inkscape:cy="152.384" inkscape:cx="41.637871" inkscape:zoom="2.4336873" showgrid="false" guidetolerance="10" gridtolerance="10" objecttolerance="10" borderopacity="1" pagecolor="#ffffff" bordercolor="#666666">
	</sodipodi:namedview>
<g id="Layer_x0020_1">
	<path id="path5" class="st0" d="M-46.2,534.8c0,3.8-3.1,6.9-6.9,6.9h-152.9c-3.8,0-6.9-3.1-6.9-6.9V306.3c0-3.8,3.1-6.9,6.9-6.9
		H-53c3.8,0,6.9,3.1,6.9,6.9V534.8z"/>
	<g id="g7">
		<g id="g9">
		</g>
	</g>
	<g id="g15">
	</g>
	<g id="g19">
	</g>
	<g id="g23">
		<g id="g25">
		</g>
	</g>
	<g id="g31">
		<g id="g33">
		</g>
	</g>
</g>
<text transform="matrix(1 0 0 1 -209.0554 326.5789)" class="st1 st2 st3">J</text>
<g id="layer1-7-88" transform="matrix(2.2711763,2.2711763,-2.0765626,2.0765626,117.0668,94.436511)">
	<path id="sl-4" sodipodi:nodetypes="cccccccccc" inkscape:connector-curvature="0" d="M27,126.4c-0.2-4.1-7.7-11.7-8-13.6
		c-0.2,1.9-7.7,9.5-8,13.6c-0.2,2.9,1.7,4.1,3.4,4.1c1.8,0,3.4-2.8,3.9-3.3c0.2,0.7-1.6,6.7-2.2,6.7h5.8c-0.6,0-2.4-6-2.2-6.7
		c0.5,0.5,1.8,3.3,3.9,3.3C25.3,130.5,27.1,129.3,27,126.4z"/>
</g>
<text transform="matrix(1 0 0 1 -208.7267 348.2744)" class="st1 st2 st4">o</text>
<text transform="matrix(1 0 0 1 -210.3702 376.2155)" class="st1 st2 st4">k</text>
<text transform="matrix(1 0 0 1 -210.3702 398.5684)" class="st1 st2 st4">e</text>
<text transform="matrix(1 0 0 1 -210.699 419.6064)" class="st1 st2 st4">r</text>
<g id="layer1-9" transform="matrix(2.374378,-2.374378,2.2221918,2.2221918,59.383523,95.635421)">
	<path id="hl" sodipodi:nodetypes="scsscss" inkscape:connector-curvature="0" class="st1" d="M-104.2,10.4c-3.2,0-3.7,3.5-3.7,3.5
		s-0.4-3.5-3.7-3.5c-2.3,0-4.3,1.6-4.3,4.5c0,3.9,6.6,7.8,8,13.5c1.4-5.7,8-9.6,8-13.5C-99.9,12-101.9,10.4-104.2,10.4z"/>
</g>
<g id="layer1-1" transform="matrix(-2.145754,-2.145754,2.145754,-2.145754,110.19878,305.77847)">
	<path id="cl" inkscape:connector-curvature="0" d="M30.2-96.7c0,0,2.4-1.9,2.4-4.5c0-1.5-1.4-4.1-4.5-4.1s-4.5,2.6-4.5,4.1
		c0,2.6,2.4,4.5,2.4,4.5c-2.6-2.1-7.3-0.7-7.3,3.5c0,2.1,1.7,4.3,4.3,4.3c3.2,0,4.5-3.5,4.5-3.5s0.4,3.9-1.9,6h5.2
		c-2.3-2.1-1.9-6-1.9-6s1.4,3.5,4.5,3.5c2.6,0,4.3-2.3,4.3-4.3C37.5-97.3,32.8-98.7,30.2-96.7z"/>
</g>
<g id="layer1-2" transform="matrix(2.235014,-2.235014,2.235014,2.235014,117.78936,156.16707)">
	<path id="dl" sodipodi:nodetypes="ccccccccc" inkscape:connector-curvature="0" class="st1" d="M-111.3,14.6
		c-2.1-2.9-3.2-5.8-3.2-5.8s-1.1,2.9-3.2,5.8c-2.1,2.9-4.8,4.7-4.8,4.7s2.6,1.9,4.8,4.7c2.1,2.9,3.2,5.8,3.2,5.8s1.1-2.9,3.2-5.8
		c2.1-2.9,4.8-4.7,4.8-4.7S-109.2,17.4-111.3,14.6z"/>
</g>
<text transform="matrix(-1 0 0 -1 -49.2842 514.2244)" class="st1 st2 st3">J</text>
<text transform="matrix(-1 0 0 -1 -49.6123 492.5291)" class="st1 st2 st4">o</text>
<text transform="matrix(-1 0 0 -1 -47.9688 464.5876)" class="st1 st2 st4">k</text>
<text transform="matrix(-1 0 0 -1 -47.9688 442.2361)" class="st1 st2 st4">e</text>
<text transform="matrix(-1 0 0 -1 -47.6406 421.197)" class="st1 st2 st4">r</text>
<path class="st5" d="M-82,312.1"/>
<text transform="matrix(0.9708 -0.2398 0.2398 0.9708 -161.6503 348.2738)" class="st6 st7">JOKER</text>
<text transform="matrix(0.9708 -0.2398 0.2398 0.9708 -193.3134 514.2241)" class="st6 st7">JOKER</text>
</svg>
