<?xml version="1.0" encoding="utf-8"?>
<!-- Generator: Adobe Illustrator 19.0.0, SVG Export Plug-In . SVG Version: 6.00 Build 0)  -->
<svg version="1.1"
	 id="svg2" xmlns:dc="http://purl.org/dc/elements/1.1/" xmlns:cc="http://creativecommons.org/ns#" xmlns:rdf="http://www.w3.org/1999/02/22-rdf-syntax-ns#" xmlns:svg="http://www.w3.org/2000/svg" xmlns:sodipodi="http://sodipodi.sourceforge.net/DTD/sodipodi-0.dtd" xmlns:inkscape="http://www.inkscape.org/namespaces/inkscape" sodipodi:docname="A_of_clubs.svg" inkscape:export-ydpi="215.44792" inkscape:version="0.48.0 r9654" inkscape:export-filename="/home/byron/art/cards/final/PNGs/A_of_clubs.png" inkscape:export-xdpi="215.44792"
	 xmlns="http://www.w3.org/2000/svg" xmlns:xlink="http://www.w3.org/1999/xlink" x="0px" y="0px" viewBox="-213 299.2 167.1 242.7"
	 style="enable-background:new -213 299.2 167.1 242.7;" xml:space="preserve">
<style type="text/css">
	.st0{fill:#EDDD80;stroke:#000000;stroke-width:0.5;}
	.st1{fill:#B593C3;}
	.st2{font-family:'ArialMT';}
	.st3{font-size:32px;}
	.st4{fill:#E72919;}
	.st5{filter:url(#filter3834);}
	.st6{fill:url(#SVGID_1_);}
	.st7{filter:url(#filter3834-6);}
	.st8{fill:url(#SVGID_2_);}
	.st9{filter:url(#filter3834-7);}
	.st10{fill:url(#SVGID_3_);}
	.st11{fill:#F7E38F;}
	.st12{fill:#63B72F;}
	.st13{fill:#123D96;}
	.st14{fill:#20B4D9;}
</style>
<filter  width="1.2786888" height="1.3248404" id="filter3834-7" x="-0.13934441" y="-0.16242018" inkscape:collect="always" color-interpolation-filters="sRGB">
	<feGaussianBlur  stdDeviation="9.5105772" id="feGaussianBlur3836-0" inkscape:collect="always"></feGaussianBlur>
</filter>
<filter  width="1.2786888" height="1.3248404" id="filter3834-6" x="-0.13934441" y="-0.16242018" inkscape:collect="always" color-interpolation-filters="sRGB">
	<feGaussianBlur  stdDeviation="9.5105772" id="feGaussianBlur3836-6" inkscape:collect="always"></feGaussianBlur>
</filter>
<filter  width="1.2786888" height="1.3248404" id="filter3834" x="-0.13934441" y="-0.16242018" inkscape:collect="always" color-interpolation-filters="sRGB">
	<feGaussianBlur  stdDeviation="9.5105772" id="feGaussianBlur3836" inkscape:collect="always"></feGaussianBlur>
</filter>
<sodipodi:namedview  id="namedview39" inkscape:cy="148.16686" inkscape:cx="188.71531" inkscape:zoom="2.4336873" showgrid="false" guidetolerance="10" gridtolerance="10" objecttolerance="10" borderopacity="1" bordercolor="#666666" pagecolor="#ffffff" inkscape:current-layer="svg2" inkscape:window-maximized="1" inkscape:window-y="25" inkscape:window-x="0" inkscape:window-width="1680" inkscape:window-height="977" inkscape:pageshadow="2" inkscape:pageopacity="0">
	</sodipodi:namedview>
<g id="Layer_x0020_1">
	<path id="path5" class="st0" d="M-46.2,534.8c0,3.8-3.1,6.9-6.9,6.9h-152.9c-3.8,0-6.9-3.1-6.9-6.9V306.3c0-3.8,3.1-6.9,6.9-6.9
		H-53c3.8,0,6.9,3.1,6.9,6.9V534.8z"/>
	<g id="g7">
		<g id="g9">
		</g>
	</g>
	<g id="g15">
	</g>
	<g id="g19">
	</g>
	<g id="g23">
		<g id="g25">
		</g>
	</g>
	<g id="g31">
		<g id="g33">
		</g>
	</g>
</g>
<text transform="matrix(1 0 0 1 -206.2895 326.7714)" class="st1 st2 st3">A</text>
<g id="g3804" transform="matrix(0.20614599,0,0,0.20614599,8.8705463,16.512759)">
	<g id="layer1-1" transform="matrix(28.969925,0,0,28.969925,-1031.5368,-187.37665)">
		<path id="cl" inkscape:connector-curvature="0" class="st4" d="M14.6,72.8c0,0,2.4-1.9,2.4-4.5c0-1.5-1.4-4.1-4.5-4.1
			s-4.5,2.6-4.5,4.1c0,2.6,2.4,4.5,2.4,4.5C7.7,70.7,3,72.2,3,76.3c0,2.1,1.7,4.3,4.3,4.3c3.2,0,4.5-3.5,4.5-3.5s0.4,3.9-1.9,6h5.2
			c-2.3-2.1-1.9-6-1.9-6s1.4,3.5,4.5,3.5c2.6,0,4.3-2.3,4.3-4.3C22,72.2,17.3,70.7,14.6,72.8z"/>
	</g>
	<g id="path3762" sodipodi:nodetypes="cscsc" inkscape:connector-curvature="0" class="st5">
		
			<radialGradient id="SVGID_1_" cx="-565.9211" cy="-7847.2412" r="81.9028" gradientTransform="matrix(0.2636 -0.1677 -9.027245e-02 -0.1681 -1445.7599 529.9324)" gradientUnits="userSpaceOnUse">
			<stop  offset="0" style="stop-color:#FFFFFF;stop-opacity:0.5344"/>
			<stop  offset="1" style="stop-color:#000000;stop-opacity:0"/>
		</radialGradient>
		<path class="st6" d="M-940.5,2069.6c0,0-8.9-114.6,25.4-148.3c38.6-37.9,155.3-13.8,155.3-13.8s-79.3,30-110.9,58.6
			C-901,1993.5-940.5,2069.6-940.5,2069.6z"/>
	</g>
	<g id="path3762-6" sodipodi:nodetypes="cscsc" inkscape:connector-curvature="0" class="st7">
		
			<radialGradient id="SVGID_2_" cx="-565.9211" cy="-7847.2412" r="81.9028" gradientTransform="matrix(0.2636 -0.1677 -9.027245e-02 -0.1681 -1291.1584 309.0092)" gradientUnits="userSpaceOnUse">
			<stop  offset="0" style="stop-color:#FFFFFF;stop-opacity:0.5191"/>
			<stop  offset="1" style="stop-color:#000000;stop-opacity:0"/>
		</radialGradient>
		<path class="st8" d="M-785.9,1848.7c0,0-8.9-114.6,25.4-148.3c38.6-37.9,155.3-13.8,155.3-13.8s-79.3,30-110.9,58.6
			C-746.4,1772.6-785.9,1848.7-785.9,1848.7z"/>
	</g>
	<g id="path3762-7" sodipodi:nodetypes="cscsc" inkscape:connector-curvature="0" class="st9">
		
			<radialGradient id="SVGID_3_" cx="1817.0626" cy="-4398.147" r="81.9028" gradientTransform="matrix(0.3884 -2.295671e-02 2.428096e-02 -0.2477 -1109.3672 839.1145)" gradientUnits="userSpaceOnUse">
			<stop  offset="0" style="stop-color:#FFFFFF;stop-opacity:0.7023"/>
			<stop  offset="1" style="stop-color:#000000;stop-opacity:0"/>
		</radialGradient>
		<path class="st10" d="M-678.6,2055.4c0,0,70.7-135.5,129.5-152c66.1-18.5,169.5,82.8,169.5,82.8s-102.6-16.3-155.1-3.9
			C-584.9,1994.3-678.6,2055.4-678.6,2055.4z"/>
	</g>
	<path id="rect3015" inkscape:connector-curvature="0" class="st11" d="M-1004.9,1573.5v734.3h667.2v-734.3
		C-337.7,1573.5-1004.9,1573.5-1004.9,1573.5z M-670.6,1671.2c91.7,0,131.4,74.2,131.4,118.8c0,76.3-68.8,131.3-68.8,131.3
		c76.4-59.5,212.7-18.9,212.7,100.1c0,59.5-48.6,125.1-125.1,125.1c-91.7,0-131.3-100.1-131.3-100.1s-11.7,114.1,56.3,175.2h-150.1
		c67.9-61.1,56.3-175.2,56.3-175.2s-39.7,100.1-131.3,100.1c-76.4,0-125.1-65.5-125.1-125.1c0-119,136.2-159.6,212.7-100.1
		c0,0-68.8-55-68.8-131.3C-802,1745.4-762.3,1671.2-670.6,1671.2z"/>
</g>
<g id="layer1-1-4" transform="matrix(1.4856506,0,0,1.4856506,-54.024661,10.018072)">
	<path id="cl-9" inkscape:connector-curvature="0" class="st12" d="M-93.1,224.1c0,0,2.4-1.9,2.4-4.5c0-1.5-1.4-4.1-4.5-4.1
		s-4.5,2.6-4.5,4.1c0,2.6,2.4,4.5,2.4,4.5c-2.6-2.1-7.3-0.7-7.3,3.5c0,2.1,1.7,4.3,4.3,4.3c3.2,0,4.5-3.5,4.5-3.5s0.4,3.9-1.9,6h5.2
		c-2.3-2.1-1.9-6-1.9-6s1.4,3.5,4.5,3.5c2.6,0,4.3-2.3,4.3-4.3C-85.7,223.5-90.4,222.1-93.1,224.1z"/>
</g>
<text transform="matrix(-1 0 0 -1 -52.5361 513.6892)" class="st13 st2 st3">A</text>
<g id="layer1-1-4-1" transform="matrix(-1.4856506,0,0,-1.4856506,221.19916,232.46182)">
	<path id="cl-9-7" inkscape:connector-curvature="0" class="st14" d="M193.7-178.7c0,0,2.4-1.9,2.4-4.5c0-1.5-1.4-4.1-4.5-4.1
		c-3.2,0-4.5,2.6-4.5,4.1c0,2.6,2.4,4.5,2.4,4.5c-2.6-2.1-7.3-0.7-7.3,3.5c0,2.1,1.7,4.3,4.3,4.3c3.2,0,4.5-3.5,4.5-3.5
		s0.4,3.9-1.9,6h5.2c-2.3-2.1-1.9-6-1.9-6s1.4,3.5,4.5,3.5c2.6,0,4.3-2.3,4.3-4.3C201-179.4,196.3-180.8,193.7-178.7z"/>
</g>
</svg>
