<?xml version="1.0" encoding="utf-8"?>
<!-- Generator: Adobe Illustrator 19.0.0, SVG Export Plug-In . SVG Version: 6.00 Build 0)  -->
<svg version="1.1"
	 id="svg2" xmlns:dc="http://purl.org/dc/elements/1.1/" xmlns:cc="http://creativecommons.org/ns#" xmlns:rdf="http://www.w3.org/1999/02/22-rdf-syntax-ns#" xmlns:svg="http://www.w3.org/2000/svg" xmlns:sodipodi="http://sodipodi.sourceforge.net/DTD/sodipodi-0.dtd" xmlns:inkscape="http://www.inkscape.org/namespaces/inkscape" sodipodi:docname="10_of_spades.svg" inkscape:export-ydpi="215.44792" inkscape:version="0.48.0 r9654" inkscape:export-filename="/home/byron/art/cards/final/PNGs/10_of_spades.png" inkscape:export-xdpi="215.44792"
	 xmlns="http://www.w3.org/2000/svg" xmlns:xlink="http://www.w3.org/1999/xlink" x="0px" y="0px" viewBox="-213 299.2 167.1 242.7"
	 style="enable-background:new -213 299.2 167.1 242.7;" xml:space="preserve">
<style type="text/css">
	.st0{fill:#F2CE99;stroke:#000000;stroke-width:0.5;}
	.st1{font-family:'ArialMT';}
	.st2{font-size:32px;}
	.st3{fill:#EC6331;}
	.st4{fill:#7FBF31;}
	.st5{fill:#5F1A84;}
	.st6{fill:#282679;}
	.st7{fill:#172C83;}
	.st8{fill:#E72F19;}
	.st9{fill:#A24323;}
	.st10{fill:#511234;}
	.st11{fill:#A02F24;}
	.st12{fill:#5DB530;}
	.st13{fill:#6AC6DA;}
	.st14{fill:#4D8FCD;}
</style>
<sodipodi:namedview  id="namedview39" inkscape:cy="157.08206" inkscape:cx="106.02254" inkscape:zoom="2.4336873" showgrid="false" guidetolerance="10" gridtolerance="10" objecttolerance="10" borderopacity="1" bordercolor="#666666" pagecolor="#ffffff" inkscape:current-layer="svg2" inkscape:window-maximized="1" inkscape:window-y="25" inkscape:window-x="0" inkscape:window-width="1680" inkscape:window-height="977" inkscape:pageshadow="2" inkscape:pageopacity="0">
	</sodipodi:namedview>
<g id="Layer_x0020_1">
	<path id="path5" class="st0" d="M-46.2,534.8c0,3.8-3.1,6.9-6.9,6.9h-152.9c-3.8,0-6.9-3.1-6.9-6.9V306.3c0-3.8,3.1-6.9,6.9-6.9
		H-53c3.8,0,6.9,3.1,6.9,6.9V534.8z"/>
	<g id="g7">
		<g id="g9">
		</g>
	</g>
	<g id="g15">
	</g>
	<g id="g19">
	</g>
	<g id="g23">
		<g id="g25">
		</g>
	</g>
	<g id="g31">
		<g id="g33">
		</g>
	</g>
</g>
<text transform="matrix(1 0 0 1 -212.9564 327.565)" class="st1 st2">1</text>
<g id="layer1-7" transform="matrix(1.5085945,0,0,1.3793253,16.929041,45.065897)">
	<path id="sl" sodipodi:nodetypes="cccccccccc" inkscape:connector-curvature="0" class="st3" d="M-133.2,220
		c-0.2-4.1-7.7-11.7-8-13.6c-0.2,1.9-7.7,9.5-8,13.6c-0.2,2.9,1.7,4.1,3.4,4.1c1.8,0,3.4-2.8,3.9-3.3c0.2,0.7-1.6,6.7-2.2,6.7h5.8
		c-0.6,0-2.4-6-2.2-6.7c0.5,0.5,1.8,3.3,3.9,3.3C-134.9,224.1-133,222.9-133.2,220z"/>
</g>
<g id="layer1-7-88" transform="matrix(2.6486789,0,0,2.4217176,53.01089,31.765995)">
	<path id="sl-4" sodipodi:nodetypes="cccccccccc" inkscape:connector-curvature="0" class="st4" d="M-72.4,126.7
		c-0.2-4.1-7.7-11.7-8-13.6c-0.2,1.9-7.7,9.5-8,13.6c-0.2,2.9,1.7,4.1,3.4,4.1c1.8,0,3.4-2.8,3.9-3.3c0.2,0.7-1.6,6.7-2.2,6.7h5.8
		c-0.6,0-2.4-6-2.2-6.7c0.5,0.5,1.8,3.3,3.9,3.3C-74.1,130.7-72.3,129.5-72.4,126.7z"/>
</g>
<g id="layer1-7-3" transform="matrix(-1.5085945,0,0,-1.3793253,150.22511,198.04408)">
	<path id="sl-1" sodipodi:nodetypes="cccccccccc" inkscape:connector-curvature="0" class="st5" d="M149.2-213.8
		c-0.2-4.1-7.7-11.7-8-13.6c-0.2,1.9-7.7,9.5-8,13.6c-0.2,2.9,1.7,4.1,3.4,4.1c1.8,0,3.4-2.8,3.9-3.3c0.2,0.7-1.6,6.7-2.2,6.7h5.8
		c-0.6,0-2.4-6-2.2-6.7c0.5,0.5,1.8,3.3,3.9,3.3C147.5-209.8,149.3-211,149.2-213.8z"/>
</g>
<g id="layer1-7-88-8" transform="matrix(2.6486789,0,0,2.4217176,53.339713,94.698498)">
	<path id="sl-4-8" sodipodi:nodetypes="cccccccccc" inkscape:connector-curvature="0" class="st6" d="M-72.4,126.7
		c-0.2-4.1-7.7-11.7-8-13.6c-0.2,1.9-7.7,9.5-8,13.6c-0.2,2.9,1.7,4.1,3.4,4.1c1.8,0,3.4-2.8,3.9-3.3c0.2,0.7-1.6,6.7-2.2,6.7h5.8
		c-0.6,0-2.4-6-2.2-6.7c0.5,0.5,1.8,3.3,3.9,3.3C-74.1,130.7-72.3,129.5-72.4,126.7z"/>
</g>
<g id="layer1-7-88-4" transform="matrix(-2.6486789,0,0,-2.4217176,53.789261,212.66394)">
	<path id="sl-4-3" sodipodi:nodetypes="cccccccccc" inkscape:connector-curvature="0" class="st7" d="M88.4-120.5
		c-0.2-4.1-7.7-11.7-8-13.6c-0.2,1.9-7.7,9.5-8,13.6c-0.2,2.9,1.7,4.1,3.4,4.1c1.8,0,3.4-2.8,3.9-3.3c0.2,0.7-1.6,6.7-2.2,6.7h5.8
		c-0.6,0-2.4-6-2.2-6.7c0.5,0.5,1.8,3.3,3.9,3.3C86.7-116.4,88.6-117.6,88.4-120.5z"/>
</g>
<g id="layer1-7-88-8-1" transform="matrix(-2.6486789,0,0,-2.4217176,53.460438,151.33144)">
	<path id="sl-4-8-4" sodipodi:nodetypes="cccccccccc" inkscape:connector-curvature="0" class="st8" d="M88.4-120.5
		c-0.2-4.1-7.7-11.7-8-13.6c-0.2,1.9-7.7,9.5-8,13.6c-0.2,2.9,1.7,4.1,3.4,4.1c1.8,0,3.4-2.8,3.9-3.3c0.2,0.7-1.6,6.7-2.2,6.7h5.8
		c-0.6,0-2.4-6-2.2-6.7c0.5,0.5,1.8,3.3,3.9,3.3C86.7-116.4,88.6-117.6,88.4-120.5z"/>
</g>
<g id="layer1-7-88-9" transform="matrix(2.6486789,0,0,2.4217176,114.97822,31.578035)">
	<path id="sl-4-2" sodipodi:nodetypes="cccccccccc" inkscape:connector-curvature="0" class="st9" d="M-72.4,126.7
		c-0.2-4.1-7.7-11.7-8-13.6c-0.2,1.9-7.7,9.5-8,13.6c-0.2,2.9,1.7,4.1,3.4,4.1c1.8,0,3.4-2.8,3.9-3.3c0.2,0.7-1.6,6.7-2.2,6.7h5.8
		c-0.6,0-2.4-6-2.2-6.7c0.5,0.5,1.8,3.3,3.9,3.3C-74.1,130.7-72.3,129.5-72.4,126.7z"/>
</g>
<g id="layer1-7-88-8-0" transform="matrix(2.6486789,0,0,2.4217176,115.30704,94.510535)">
	<path id="sl-4-8-6" sodipodi:nodetypes="cccccccccc" inkscape:connector-curvature="0" class="st10" d="M-72.4,126.7
		c-0.2-4.1-7.7-11.7-8-13.6c-0.2,1.9-7.7,9.5-8,13.6c-0.2,2.9,1.7,4.1,3.4,4.1c1.8,0,3.4-2.8,3.9-3.3c0.2,0.7-1.6,6.7-2.2,6.7h5.8
		c-0.6,0-2.4-6-2.2-6.7c0.5,0.5,1.8,3.3,3.9,3.3C-74.1,130.7-72.3,129.5-72.4,126.7z"/>
</g>
<g id="layer1-7-88-4-8" transform="matrix(-2.6486789,0,0,-2.4217176,115.75659,212.47597)">
	<path id="sl-4-3-9" sodipodi:nodetypes="cccccccccc" inkscape:connector-curvature="0" class="st11" d="M88.4-120.5
		c-0.2-4.1-7.7-11.7-8-13.6c-0.2,1.9-7.7,9.5-8,13.6c-0.2,2.9,1.7,4.1,3.4,4.1c1.8,0,3.4-2.8,3.9-3.3c0.2,0.7-1.6,6.7-2.2,6.7h5.8
		c-0.6,0-2.4-6-2.2-6.7c0.5,0.5,1.8,3.3,3.9,3.3C86.7-116.4,88.6-117.6,88.4-120.5z"/>
</g>
<g id="layer1-7-88-8-1-2" transform="matrix(-2.6486789,0,0,-2.4217176,115.42777,151.14347)">
	<path id="sl-4-8-4-6" sodipodi:nodetypes="cccccccccc" inkscape:connector-curvature="0" class="st12" d="M88.4-120.5
		c-0.2-4.1-7.7-11.7-8-13.6c-0.2,1.9-7.7,9.5-8,13.6c-0.2,2.9,1.7,4.1,3.4,4.1c1.8,0,3.4-2.8,3.9-3.3c0.2,0.7-1.6,6.7-2.2,6.7h5.8
		c-0.6,0-2.4-6-2.2-6.7c0.5,0.5,1.8,3.3,3.9,3.3C86.7-116.4,88.6-117.6,88.4-120.5z"/>
</g>
<g id="layer1-7-88-6" transform="matrix(2.6486789,0,0,2.4217176,84.152135,64.171198)">
	<path id="sl-4-4" sodipodi:nodetypes="cccccccccc" inkscape:connector-curvature="0" class="st13" d="M-72.4,126.7
		c-0.2-4.1-7.7-11.7-8-13.6c-0.2,1.9-7.7,9.5-8,13.6c-0.2,2.9,1.7,4.1,3.4,4.1c1.8,0,3.4-2.8,3.9-3.3c0.2,0.7-1.6,6.7-2.2,6.7h5.8
		c-0.6,0-2.4-6-2.2-6.7c0.5,0.5,1.8,3.3,3.9,3.3C-74.1,130.7-72.3,129.5-72.4,126.7z"/>
</g>
<g id="layer1-7-88-6-6" transform="matrix(-2.6486789,0,0,-2.4217176,84.480868,180.54025)">
	<path id="sl-4-4-8" sodipodi:nodetypes="cccccccccc" inkscape:connector-curvature="0" class="st14" d="M88.4-120.5
		c-0.2-4.1-7.7-11.7-8-13.6c-0.2,1.9-7.7,9.5-8,13.6c-0.2,2.9,1.7,4.1,3.4,4.1c1.8,0,3.4-2.8,3.9-3.3c0.2,0.7-1.6,6.7-2.2,6.7h5.8
		c-0.6,0-2.4-6-2.2-6.7c0.5,0.5,1.8,3.3,3.9,3.3C86.7-116.4,88.6-117.6,88.4-120.5z"/>
</g>
<text transform="matrix(1 0 0 1 -200.7938 327.8937)" class="st1 st2">0</text>
<text transform="matrix(-1 0 0 -1 -46.1631 513.8064)" class="st1 st2">1</text>
<text transform="matrix(-1 0 0 -1 -58.3262 513.4763)" class="st1 st2">0</text>
</svg>
