<?xml version="1.0" encoding="utf-8"?>
<!-- Generator: Adobe Illustrator 19.0.0, SVG Export Plug-In . SVG Version: 6.00 Build 0)  -->
<svg version="1.1"
	 id="svg2" xmlns:dc="http://purl.org/dc/elements/1.1/" xmlns:cc="http://creativecommons.org/ns#" xmlns:rdf="http://www.w3.org/1999/02/22-rdf-syntax-ns#" xmlns:svg="http://www.w3.org/2000/svg" xmlns:sodipodi="http://sodipodi.sourceforge.net/DTD/sodipodi-0.dtd" xmlns:inkscape="http://www.inkscape.org/namespaces/inkscape" sodipodi:docname="10_of_diamonds.svg" inkscape:export-ydpi="215.44792" inkscape:version="0.48.0 r9654" inkscape:export-filename="/home/byron/art/cards/final/PNGs/10_of_diamonds.png" inkscape:export-xdpi="215.44792"
	 xmlns="http://www.w3.org/2000/svg" xmlns:xlink="http://www.w3.org/1999/xlink" x="0px" y="0px" viewBox="-213 299.2 167.1 242.7"
	 style="enable-background:new -213 299.2 167.1 242.7;" xml:space="preserve">
<style type="text/css">
	.st0{fill:#EDC998;stroke:#000000;stroke-width:0.5;}
	.st1{fill:#DF0000;}
	.st2{font-family:'ArialMT';}
	.st3{font-size:32px;}
	.st4{fill:#A9DCF7;}
	.st5{fill:#B8B318;}
	.st6{fill:#3ABBEE;}
	.st7{fill:#182446;}
	.st8{fill:#3E50A1;}
	.st9{fill:#71BC54;}
	.st10{fill:#6A7D31;}
	.st11{fill:#A62D8B;}
	.st12{fill:#0F80B3;}
	.st13{fill:#E72649;}
</style>
<sodipodi:namedview  id="namedview39" inkscape:cy="147.27218" inkscape:cx="72.124594" inkscape:zoom="1.7208768" showgrid="false" guidetolerance="10" gridtolerance="10" objecttolerance="10" borderopacity="1" bordercolor="#666666" pagecolor="#ffffff" inkscape:current-layer="svg2" inkscape:window-maximized="1" inkscape:window-y="25" inkscape:window-x="0" inkscape:window-width="1680" inkscape:window-height="977" inkscape:pageshadow="2" inkscape:pageopacity="0">
	</sodipodi:namedview>
<g id="Layer_x0020_1">
	<path id="path5" class="st0" d="M-46.2,534.8c0,3.8-3.1,6.9-6.9,6.9h-152.9c-3.8,0-6.9-3.1-6.9-6.9V306.3c0-3.8,3.1-6.9,6.9-6.9
		H-53c3.8,0,6.9,3.1,6.9,6.9V534.8z"/>
	<g id="g7">
		<g id="g9">
		</g>
	</g>
	<g id="g15">
	</g>
	<g id="g19">
	</g>
	<g id="g23">
		<g id="g25">
		</g>
	</g>
	<g id="g31">
		<g id="g33">
		</g>
	</g>
</g>
<text transform="matrix(1 0 0 1 -212.5924 325.6363)" class="st1 st2 st3">1</text>
<g id="layer1-2-6" transform="matrix(1.4769065,0,0,1.4769065,16.968095,44.236162)">
	<path id="dl-6" sodipodi:nodetypes="ccccccccc" inkscape:connector-curvature="0" class="st1" d="M-141,197.9
		c-2.1-2.9-3.2-5.8-3.2-5.8s-1.1,2.9-3.2,5.8c-2.1,2.9-4.8,4.7-4.8,4.7s2.6,1.9,4.8,4.7c2.1,2.9,3.2,5.8,3.2,5.8s1.1-2.9,3.2-5.8
		c2.1-2.9,4.8-4.7,4.8-4.7S-138.9,200.7-141,197.9z"/>
</g>
<g id="layer1-2-6-4" transform="matrix(1.4769065,0,0,1.4769065,150.62089,198.50346)">
	<path id="dl-6-9" sodipodi:nodetypes="ccccccccc" inkscape:connector-curvature="0" class="st1" d="M-141,197.9
		c-2.1-2.9-3.2-5.8-3.2-5.8s-1.1,2.9-3.2,5.8c-2.1,2.9-4.8,4.7-4.8,4.7s2.6,1.9,4.8,4.7c2.1,2.9,3.2,5.8,3.2,5.8s1.1-2.9,3.2-5.8
		c2.1-2.9,4.8-4.7,4.8-4.7S-138.9,200.7-141,197.9z"/>
</g>
<g id="layer1-2-6-8-8" transform="matrix(2.5882908,0,0,2.5882908,54.128726,210.91474)">
	<path id="dl-6-8-8" sodipodi:nodetypes="ccccccccc" inkscape:connector-curvature="0" class="st4" d="M-79.1,110.9
		c-2.1-2.9-3.2-5.8-3.2-5.8s-1.1,2.9-3.2,5.8c-2.1,2.9-4.8,4.7-4.8,4.7s2.6,1.9,4.8,4.7c2.1,2.9,3.2,5.8,3.2,5.8s1.1-2.9,3.2-5.8
		c2.1-2.9,4.8-4.7,4.8-4.7S-76.9,113.7-79.1,110.9z"/>
</g>
<g id="layer1-2-6-8-2-4" transform="matrix(2.5882908,0,0,2.5882908,54.128726,31.619539)">
	<path id="dl-6-8-6-3" sodipodi:nodetypes="ccccccccc" inkscape:connector-curvature="0" class="st5" d="M-79.1,110.9
		c-2.1-2.9-3.2-5.8-3.2-5.8s-1.1,2.9-3.2,5.8c-2.1,2.9-4.8,4.7-4.8,4.7s2.6,1.9,4.8,4.7c2.1,2.9,3.2,5.8,3.2,5.8s1.1-2.9,3.2-5.8
		c2.1-2.9,4.8-4.7,4.8-4.7S-76.9,113.7-79.1,110.9z"/>
</g>
<g id="layer1-2-6-8-2-8-1" transform="matrix(2.5882908,0,0,2.5882908,54.128726,151.18274)">
	<path id="dl-6-8-6-8-4" sodipodi:nodetypes="ccccccccc" inkscape:connector-curvature="0" class="st6" d="M-79.1,110.9
		c-2.1-2.9-3.2-5.8-3.2-5.8s-1.1,2.9-3.2,5.8c-2.1,2.9-4.8,4.7-4.8,4.7s2.6,1.9,4.8,4.7c2.1,2.9,3.2,5.8,3.2,5.8s1.1-2.9,3.2-5.8
		c2.1-2.9,4.8-4.7,4.8-4.7S-76.9,113.7-79.1,110.9z"/>
</g>
<g id="layer1-2-6-8-2-8-1-4" transform="matrix(2.5882908,0,0,2.5882908,54.128726,91.351539)">
	<path id="dl-6-8-6-8-4-9" sodipodi:nodetypes="ccccccccc" inkscape:connector-curvature="0" class="st7" d="M-79.1,110.9
		c-2.1-2.9-3.2-5.8-3.2-5.8s-1.1,2.9-3.2,5.8c-2.1,2.9-4.8,4.7-4.8,4.7s2.6,1.9,4.8,4.7c2.1,2.9,3.2,5.8,3.2,5.8s1.1-2.9,3.2-5.8
		c2.1-2.9,4.8-4.7,4.8-4.7S-76.9,113.7-79.1,110.9z"/>
</g>
<g id="layer1-2-6-8-8-9" transform="matrix(2.5882908,0,0,2.5882908,112.89593,210.91474)">
	<path id="dl-6-8-8-4" sodipodi:nodetypes="ccccccccc" inkscape:connector-curvature="0" class="st8" d="M-79.1,110.9
		c-2.1-2.9-3.2-5.8-3.2-5.8s-1.1,2.9-3.2,5.8c-2.1,2.9-4.8,4.7-4.8,4.7s2.6,1.9,4.8,4.7c2.1,2.9,3.2,5.8,3.2,5.8s1.1-2.9,3.2-5.8
		c2.1-2.9,4.8-4.7,4.8-4.7S-76.9,113.7-79.1,110.9z"/>
</g>
<g id="layer1-2-6-8-2-4-9" transform="matrix(2.5882908,0,0,2.5882908,112.89593,31.619552)">
	<path id="dl-6-8-6-3-0" sodipodi:nodetypes="ccccccccc" inkscape:connector-curvature="0" class="st9" d="M-79.1,110.9
		c-2.1-2.9-3.2-5.8-3.2-5.8s-1.1,2.9-3.2,5.8c-2.1,2.9-4.8,4.7-4.8,4.7s2.6,1.9,4.8,4.7c2.1,2.9,3.2,5.8,3.2,5.8s1.1-2.9,3.2-5.8
		c2.1-2.9,4.8-4.7,4.8-4.7S-76.9,113.7-79.1,110.9z"/>
</g>
<g id="layer1-2-6-8-2-8-1-9" transform="matrix(2.5882908,0,0,2.5882908,112.89593,151.18274)">
	<path id="dl-6-8-6-8-4-1" sodipodi:nodetypes="ccccccccc" inkscape:connector-curvature="0" class="st10" d="M-79.1,110.9
		c-2.1-2.9-3.2-5.8-3.2-5.8s-1.1,2.9-3.2,5.8c-2.1,2.9-4.8,4.7-4.8,4.7s2.6,1.9,4.8,4.7c2.1,2.9,3.2,5.8,3.2,5.8s1.1-2.9,3.2-5.8
		c2.1-2.9,4.8-4.7,4.8-4.7S-76.9,113.7-79.1,110.9z"/>
</g>
<g id="layer1-2-6-8-2-8-1-4-7" transform="matrix(2.5882908,0,0,2.5882908,112.89593,91.351542)">
	<path id="dl-6-8-6-8-4-9-7" sodipodi:nodetypes="ccccccccc" inkscape:connector-curvature="0" class="st11" d="M-79.1,110.9
		c-2.1-2.9-3.2-5.8-3.2-5.8s-1.1,2.9-3.2,5.8c-2.1,2.9-4.8,4.7-4.8,4.7s2.6,1.9,4.8,4.7c2.1,2.9,3.2,5.8,3.2,5.8s1.1-2.9,3.2-5.8
		c2.1-2.9,4.8-4.7,4.8-4.7S-76.9,113.7-79.1,110.9z"/>
</g>
<g id="layer1-2-6-8-2-4-8" transform="matrix(2.5882908,0,0,2.5882908,83.213394,61.828949)">
	<path id="dl-6-8-6-3-5" sodipodi:nodetypes="ccccccccc" inkscape:connector-curvature="0" class="st12" d="M-79.1,110.9
		c-2.1-2.9-3.2-5.8-3.2-5.8s-1.1,2.9-3.2,5.8c-2.1,2.9-4.8,4.7-4.8,4.7s2.6,1.9,4.8,4.7c2.1,2.9,3.2,5.8,3.2,5.8s1.1-2.9,3.2-5.8
		c2.1-2.9,4.8-4.7,4.8-4.7S-76.9,113.7-79.1,110.9z"/>
</g>
<g id="layer1-2-6-8-2-4-8-8" transform="matrix(2.5882908,0,0,2.5882908,83.008034,180.83805)">
	<path id="dl-6-8-6-3-5-8" sodipodi:nodetypes="ccccccccc" inkscape:connector-curvature="0" class="st13" d="M-79.1,110.9
		c-2.1-2.9-3.2-5.8-3.2-5.8s-1.1,2.9-3.2,5.8c-2.1,2.9-4.8,4.7-4.8,4.7s2.6,1.9,4.8,4.7c2.1,2.9,3.2,5.8,3.2,5.8s1.1-2.9,3.2-5.8
		c2.1-2.9,4.8-4.7,4.8-4.7S-76.9,113.7-79.1,110.9z"/>
</g>
<text transform="matrix(1 0 0 1 -199.7836 325.5992)" class="st1 st2 st3">0</text>
<text transform="matrix(-1 0 0 -1 -46.5645 515.2068)" class="st1 st2 st3">1</text>
<text transform="matrix(-1 0 0 -1 -59.373 515.2439)" class="st1 st2 st3">0</text>
</svg>
