<?xml version="1.0" encoding="utf-8"?>
<!-- Generator: Adobe Illustrator 19.0.0, SVG Export Plug-In . SVG Version: 6.00 Build 0)  -->
<svg version="1.1"
	 id="svg2" xmlns:dc="http://purl.org/dc/elements/1.1/" xmlns:cc="http://creativecommons.org/ns#" xmlns:rdf="http://www.w3.org/1999/02/22-rdf-syntax-ns#" xmlns:svg="http://www.w3.org/2000/svg" xmlns:sodipodi="http://sodipodi.sourceforge.net/DTD/sodipodi-0.dtd" xmlns:inkscape="http://www.inkscape.org/namespaces/inkscape" sodipodi:docname="6_of_clubs.svg" inkscape:export-ydpi="215.44792" inkscape:version="0.48.0 r9654" inkscape:export-filename="/home/byron/art/cards/final/PNGs/6_of_clubs.png" inkscape:export-xdpi="215.44792"
	 xmlns="http://www.w3.org/2000/svg" xmlns:xlink="http://www.w3.org/1999/xlink" x="0px" y="0px" viewBox="-213 299.2 167.1 242.7"
	 style="enable-background:new -213 299.2 167.1 242.7;" xml:space="preserve">
<style type="text/css">
	.st0{fill:#F4C376;stroke:#000000;stroke-width:0.5;}
	.st1{font-family:'ArialMT';}
	.st2{font-size:32px;}
	.st3{fill:#AFD7A7;}
	.st4{fill:#E72654;}
	.st5{fill:#1C489D;}
	.st6{fill:#036C8E;}
	.st7{fill:#C8358D;}
	.st8{fill:#CA5719;}
</style>
<sodipodi:namedview  id="namedview39" inkscape:cy="148.16686" inkscape:cx="117.62976" inkscape:zoom="2.4336873" showgrid="false" guidetolerance="10" gridtolerance="10" objecttolerance="10" borderopacity="1" bordercolor="#666666" pagecolor="#ffffff" inkscape:current-layer="svg2" inkscape:window-maximized="1" inkscape:window-y="25" inkscape:window-x="0" inkscape:window-width="1680" inkscape:window-height="977" inkscape:pageshadow="2" inkscape:pageopacity="0">
	</sodipodi:namedview>
<g id="Layer_x0020_1">
	<path id="path5" class="st0" d="M-46.2,534.8c0,3.8-3.1,6.9-6.9,6.9h-152.9c-3.8,0-6.9-3.1-6.9-6.9V306.3c0-3.8,3.1-6.9,6.9-6.9
		H-53c3.8,0,6.9,3.1,6.9,6.9V534.8z"/>
	<g id="g7">
		<g id="g9">
		</g>
	</g>
	<g id="g15">
	</g>
	<g id="g19">
	</g>
	<g id="g23">
		<g id="g25">
		</g>
	</g>
	<g id="g31">
		<g id="g33">
		</g>
	</g>
</g>
<text transform="matrix(1 0 0 1 -204.6895 326.7714)" class="st1 st2">6</text>
<g id="layer1-1-4" transform="matrix(1.4856506,0,0,1.4856506,-54.024661,10.018072)">
	<path id="cl-9" inkscape:connector-curvature="0" d="M-93.1,224.1c0,0,2.4-1.9,2.4-4.5c0-1.5-1.4-4.1-4.5-4.1s-4.5,2.6-4.5,4.1
		c0,2.6,2.4,4.5,2.4,4.5c-2.6-2.1-7.3-0.7-7.3,3.5c0,2.1,1.7,4.3,4.3,4.3c3.2,0,4.5-3.5,4.5-3.5s0.4,3.9-1.9,6h5.2
		c-2.3-2.1-1.9-6-1.9-6s1.4,3.5,4.5,3.5c2.6,0,4.3-2.3,4.3-4.3C-85.7,223.5-90.4,222.1-93.1,224.1z"/>
</g>
<text transform="matrix(-1 0 0 -1 -54.1357 513.6892)" class="st1 st2">6</text>
<g id="layer1-1-4-1" transform="matrix(-1.4856506,0,0,-1.4856506,221.19916,232.46182)">
	<path id="cl-9-7" inkscape:connector-curvature="0" d="M193.7-178.7c0,0,2.4-1.9,2.4-4.5c0-1.5-1.4-4.1-4.5-4.1
		c-3.2,0-4.5,2.6-4.5,4.1c0,2.6,2.4,4.5,2.4,4.5c-2.6-2.1-7.3-0.7-7.3,3.5c0,2.1,1.7,4.3,4.3,4.3c3.2,0,4.5-3.5,4.5-3.5
		s0.4,3.9-1.9,6h5.2c-2.3-2.1-1.9-6-1.9-6s1.4,3.5,4.5,3.5c2.6,0,4.3-2.3,4.3-4.3C201-179.4,196.3-180.8,193.7-178.7z"/>
</g>
<g id="layer1-1-4-8" transform="matrix(2.5125778,0,0,2.5125778,-63.988386,-9.5311159)">
	<path id="cl-9-8" inkscape:connector-curvature="0" class="st3" d="M-34.5,141.8c0,0,2.4-1.9,2.4-4.5c0-1.5-1.4-4.1-4.5-4.1
		s-4.5,2.6-4.5,4.1c0,2.6,2.4,4.5,2.4,4.5c-2.6-2.1-7.3-0.7-7.3,3.5c0,2.1,1.7,4.3,4.3,4.3c3.2,0,4.5-3.5,4.5-3.5s0.4,3.9-1.9,6h5.2
		c-2.3-2.1-1.9-6-1.9-6s1.4,3.5,4.5,3.5c2.6,0,4.3-2.3,4.3-4.3C-27.1,141.1-31.8,139.7-34.5,141.8z"/>
</g>
<g id="layer1-1-4-8-0" transform="matrix(-2.5125778,0,0,-2.5125778,177.92954,253.27515)">
	<path id="cl-9-8-6" inkscape:connector-curvature="0" class="st4" d="M135.1-96.4c0,0,2.4-1.9,2.4-4.5c0-1.5-1.4-4.1-4.5-4.1
		c-3.2,0-4.5,2.6-4.5,4.1c0,2.6,2.4,4.5,2.4,4.5c-2.6-2.1-7.3-0.7-7.3,3.5c0,2.1,1.7,4.3,4.3,4.3c3.2,0,4.5-3.5,4.5-3.5
		s0.4,3.9-1.9,6h5.2c-2.3-2.1-1.9-6-1.9-6s1.4,3.5,4.5,3.5c2.6,0,4.3-2.3,4.3-4.3C142.4-97,137.7-98.4,135.1-96.4z"/>
</g>
<g id="layer1-1-4-8-2" transform="matrix(2.5125778,0,0,2.5125778,-63.988386,60.169684)">
	<path id="cl-9-8-0" inkscape:connector-curvature="0" class="st5" d="M-34.5,141.8c0,0,2.4-1.9,2.4-4.5c0-1.5-1.4-4.1-4.5-4.1
		s-4.5,2.6-4.5,4.1c0,2.6,2.4,4.5,2.4,4.5c-2.6-2.1-7.3-0.7-7.3,3.5c0,2.1,1.7,4.3,4.3,4.3c3.2,0,4.5-3.5,4.5-3.5s0.4,3.9-1.9,6h5.2
		c-2.3-2.1-1.9-6-1.9-6s1.4,3.5,4.5,3.5c2.6,0,4.3-2.3,4.3-4.3C-27.1,141.1-31.8,139.7-34.5,141.8z"/>
</g>
<g id="layer1-1-4-8-8" transform="matrix(2.5125778,0,0,2.5125778,-11.20333,-9.7048439)">
	<path id="cl-9-8-9" inkscape:connector-curvature="0" class="st6" d="M-34.5,141.8c0,0,2.4-1.9,2.4-4.5c0-1.5-1.4-4.1-4.5-4.1
		s-4.5,2.6-4.5,4.1c0,2.6,2.4,4.5,2.4,4.5c-2.6-2.1-7.3-0.7-7.3,3.5c0,2.1,1.7,4.3,4.3,4.3c3.2,0,4.5-3.5,4.5-3.5s0.4,3.9-1.9,6h5.2
		c-2.3-2.1-1.9-6-1.9-6s1.4,3.5,4.5,3.5c2.6,0,4.3-2.3,4.3-4.3C-27.1,141.1-31.8,139.7-34.5,141.8z"/>
</g>
<g id="layer1-1-4-8-0-2" transform="matrix(-2.5125778,0,0,-2.5125778,230.7146,253.10142)">
	<path id="cl-9-8-6-6" inkscape:connector-curvature="0" class="st7" d="M135.1-96.4c0,0,2.4-1.9,2.4-4.5c0-1.5-1.4-4.1-4.5-4.1
		c-3.2,0-4.5,2.6-4.5,4.1c0,2.6,2.4,4.5,2.4,4.5c-2.6-2.1-7.3-0.7-7.3,3.5c0,2.1,1.7,4.3,4.3,4.3c3.2,0,4.5-3.5,4.5-3.5
		s0.4,3.9-1.9,6h5.2c-2.3-2.1-1.9-6-1.9-6s1.4,3.5,4.5,3.5c2.6,0,4.3-2.3,4.3-4.3C142.4-97,137.7-98.4,135.1-96.4z"/>
</g>
<g id="layer1-1-4-8-2-6" transform="matrix(2.5125778,0,0,2.5125778,-11.20333,59.995956)">
	<path id="cl-9-8-0-4" inkscape:connector-curvature="0" class="st8" d="M-34.5,141.8c0,0,2.4-1.9,2.4-4.5c0-1.5-1.4-4.1-4.5-4.1
		s-4.5,2.6-4.5,4.1c0,2.6,2.4,4.5,2.4,4.5c-2.6-2.1-7.3-0.7-7.3,3.5c0,2.1,1.7,4.3,4.3,4.3c3.2,0,4.5-3.5,4.5-3.5s0.4,3.9-1.9,6h5.2
		c-2.3-2.1-1.9-6-1.9-6s1.4,3.5,4.5,3.5c2.6,0,4.3-2.3,4.3-4.3C-27.1,141.1-31.8,139.7-34.5,141.8z"/>
</g>
</svg>
