<?xml version="1.0" encoding="utf-8"?>
<!-- Generator: Adobe Illustrator 19.0.0, SVG Export Plug-In . SVG Version: 6.00 Build 0)  -->
<svg version="1.1"
	 id="svg2" xmlns:dc="http://purl.org/dc/elements/1.1/" xmlns:cc="http://creativecommons.org/ns#" xmlns:rdf="http://www.w3.org/1999/02/22-rdf-syntax-ns#" xmlns:svg="http://www.w3.org/2000/svg" xmlns:sodipodi="http://sodipodi.sourceforge.net/DTD/sodipodi-0.dtd" xmlns:inkscape="http://www.inkscape.org/namespaces/inkscape" sodipodi:docname="8_of_diamonds.svg" inkscape:export-ydpi="215.44792" inkscape:version="0.48.0 r9654" inkscape:export-filename="/home/byron/art/cards/final/PNGs/8_of_diamonds.png" inkscape:export-xdpi="215.44792"
	 xmlns="http://www.w3.org/2000/svg" xmlns:xlink="http://www.w3.org/1999/xlink" x="0px" y="0px" viewBox="-213 299.2 167.1 242.7"
	 style="enable-background:new -213 299.2 167.1 242.7;" xml:space="preserve">
<style type="text/css">
	.st0{fill:#F4D095;stroke:#000000;stroke-width:0.5;}
	.st1{fill:#DF0000;}
	.st2{font-family:'ArialMT';}
	.st3{font-size:32px;}
	.st4{fill:#A372AF;}
	.st5{fill:#032A14;}
	.st6{fill:#0C58A8;}
	.st7{fill:#557C34;}
	.st8{fill:#0D1607;}
	.st9{fill:#060414;}
	.st10{fill:#0F7B3B;}
	.st11{fill:#E4318C;}
	.st12{fill:#6D1F76;}
	.st13{fill:#DA2916;}
</style>
<sodipodi:namedview  id="namedview39" inkscape:cy="147.27218" inkscape:cx="72.124594" inkscape:zoom="1.7208768" showgrid="false" guidetolerance="10" gridtolerance="10" objecttolerance="10" borderopacity="1" bordercolor="#666666" pagecolor="#ffffff" inkscape:current-layer="svg2" inkscape:window-maximized="1" inkscape:window-y="25" inkscape:window-x="0" inkscape:window-width="1680" inkscape:window-height="977" inkscape:pageshadow="2" inkscape:pageopacity="0">
	</sodipodi:namedview>
<g id="Layer_x0020_1">
	<path id="path5" class="st0" d="M-46.2,534.8c0,3.8-3.1,6.9-6.9,6.9h-152.9c-3.8,0-6.9-3.1-6.9-6.9V306.3c0-3.8,3.1-6.9,6.9-6.9
		H-53c3.8,0,6.9,3.1,6.9,6.9V534.8z"/>
	<g id="g7">
		<g id="g9">
		</g>
	</g>
	<g id="g15">
	</g>
	<g id="g19">
	</g>
	<g id="g23">
		<g id="g25">
		</g>
	</g>
	<g id="g31">
		<g id="g33">
		</g>
	</g>
</g>
<text transform="matrix(1 0 0 1 -205.1543 325.6363)" class="st1 st2 st3">8</text>
<text transform="matrix(-1 0 0 -1 -53.5117 515.9373)" class="st1 st2 st3">8</text>
<g id="layer1-2-6" transform="matrix(1.4769065,0,0,1.4769065,16.968095,44.236162)">
	<path id="dl-6" sodipodi:nodetypes="ccccccccc" inkscape:connector-curvature="0" class="st4" d="M-141,197.9
		c-2.1-2.9-3.2-5.8-3.2-5.8s-1.1,2.9-3.2,5.8c-2.1,2.9-4.8,4.7-4.8,4.7s2.6,1.9,4.8,4.7c2.1,2.9,3.2,5.8,3.2,5.8s1.1-2.9,3.2-5.8
		c2.1-2.9,4.8-4.7,4.8-4.7S-138.9,200.7-141,197.9z"/>
</g>
<g id="layer1-2-6-4" transform="matrix(1.4769065,0,0,1.4769065,150.62089,198.50346)">
	<path id="dl-6-9" sodipodi:nodetypes="ccccccccc" inkscape:connector-curvature="0" class="st5" d="M-141,197.9
		c-2.1-2.9-3.2-5.8-3.2-5.8s-1.1,2.9-3.2,5.8c-2.1,2.9-4.8,4.7-4.8,4.7s2.6,1.9,4.8,4.7c2.1,2.9,3.2,5.8,3.2,5.8s1.1-2.9,3.2-5.8
		c2.1-2.9,4.8-4.7,4.8-4.7S-138.9,200.7-141,197.9z"/>
</g>
<g id="layer1-2-6-8" transform="matrix(2.5882908,0,0,2.5882908,111.72873,193.62194)">
	<path id="dl-6-8" sodipodi:nodetypes="ccccccccc" inkscape:connector-curvature="0" class="st6" d="M-79.1,110.9
		c-2.1-2.9-3.2-5.8-3.2-5.8s-1.1,2.9-3.2,5.8c-2.1,2.9-4.8,4.7-4.8,4.7s2.6,1.9,4.8,4.7c2.1,2.9,3.2,5.8,3.2,5.8s1.1-2.9,3.2-5.8
		c2.1-2.9,4.8-4.7,4.8-4.7S-76.9,113.7-79.1,110.9z"/>
</g>
<g id="layer1-2-6-8-2" transform="matrix(2.5882908,0,0,2.5882908,111.72873,49.219539)">
	<path id="dl-6-8-6" sodipodi:nodetypes="ccccccccc" inkscape:connector-curvature="0" class="st7" d="M-79.1,110.9
		c-2.1-2.9-3.2-5.8-3.2-5.8s-1.1,2.9-3.2,5.8c-2.1,2.9-4.8,4.7-4.8,4.7s2.6,1.9,4.8,4.7c2.1,2.9,3.2,5.8,3.2,5.8s1.1-2.9,3.2-5.8
		c2.1-2.9,4.8-4.7,4.8-4.7S-76.9,113.7-79.1,110.9z"/>
</g>
<g id="layer1-2-6-8-2-8" transform="matrix(2.5882908,0,0,2.5882908,111.72873,120.52034)">
	<path id="dl-6-8-6-8" sodipodi:nodetypes="ccccccccc" inkscape:connector-curvature="0" class="st8" d="M-79.1,110.9
		c-2.1-2.9-3.2-5.8-3.2-5.8s-1.1,2.9-3.2,5.8c-2.1,2.9-4.8,4.7-4.8,4.7s2.6,1.9,4.8,4.7c2.1,2.9,3.2,5.8,3.2,5.8s1.1-2.9,3.2-5.8
		c2.1-2.9,4.8-4.7,4.8-4.7S-76.9,113.7-79.1,110.9z"/>
</g>
<g id="layer1-2-6-8-8" transform="matrix(2.5882908,0,0,2.5882908,54.413391,193.74005)">
	<path id="dl-6-8-8" sodipodi:nodetypes="ccccccccc" inkscape:connector-curvature="0" class="st9" d="M-79.1,110.9
		c-2.1-2.9-3.2-5.8-3.2-5.8s-1.1,2.9-3.2,5.8c-2.1,2.9-4.8,4.7-4.8,4.7s2.6,1.9,4.8,4.7c2.1,2.9,3.2,5.8,3.2,5.8s1.1-2.9,3.2-5.8
		c2.1-2.9,4.8-4.7,4.8-4.7S-76.9,113.7-79.1,110.9z"/>
</g>
<g id="layer1-2-6-8-2-4" transform="matrix(2.5882908,0,0,2.5882908,54.413391,49.337663)">
	<path id="dl-6-8-6-3" sodipodi:nodetypes="ccccccccc" inkscape:connector-curvature="0" class="st10" d="M-79.1,110.9
		c-2.1-2.9-3.2-5.8-3.2-5.8s-1.1,2.9-3.2,5.8c-2.1,2.9-4.8,4.7-4.8,4.7s2.6,1.9,4.8,4.7c2.1,2.9,3.2,5.8,3.2,5.8s1.1-2.9,3.2-5.8
		c2.1-2.9,4.8-4.7,4.8-4.7S-76.9,113.7-79.1,110.9z"/>
</g>
<g id="layer1-2-6-8-2-8-1" transform="matrix(2.5882908,0,0,2.5882908,54.413391,120.63845)">
	<path id="dl-6-8-6-8-4" sodipodi:nodetypes="ccccccccc" inkscape:connector-curvature="0" class="st11" d="M-79.1,110.9
		c-2.1-2.9-3.2-5.8-3.2-5.8s-1.1,2.9-3.2,5.8c-2.1,2.9-4.8,4.7-4.8,4.7s2.6,1.9,4.8,4.7c2.1,2.9,3.2,5.8,3.2,5.8s1.1-2.9,3.2-5.8
		c2.1-2.9,4.8-4.7,4.8-4.7S-76.9,113.7-79.1,110.9z"/>
</g>
<g id="layer1-2-6-8-2-4-8" transform="matrix(2.5882908,0,0,2.5882908,83.213393,85.53779)">
	<path id="dl-6-8-6-3-8" sodipodi:nodetypes="ccccccccc" inkscape:connector-curvature="0" class="st12" d="M-79.1,110.9
		c-2.1-2.9-3.2-5.8-3.2-5.8s-1.1,2.9-3.2,5.8c-2.1,2.9-4.8,4.7-4.8,4.7s2.6,1.9,4.8,4.7c2.1,2.9,3.2,5.8,3.2,5.8s1.1-2.9,3.2-5.8
		c2.1-2.9,4.8-4.7,4.8-4.7S-76.9,113.7-79.1,110.9z"/>
</g>
<g id="layer1-2-6-8-8-6" transform="matrix(2.5882908,0,0,2.5882908,83.21339,156.92384)">
	<path id="dl-6-8-8-8" sodipodi:nodetypes="ccccccccc" inkscape:connector-curvature="0" class="st13" d="M-79.1,110.9
		c-2.1-2.9-3.2-5.8-3.2-5.8s-1.1,2.9-3.2,5.8c-2.1,2.9-4.8,4.7-4.8,4.7s2.6,1.9,4.8,4.7c2.1,2.9,3.2,5.8,3.2,5.8s1.1-2.9,3.2-5.8
		c2.1-2.9,4.8-4.7,4.8-4.7S-76.9,113.7-79.1,110.9z"/>
</g>
</svg>
