<?xml version="1.0" encoding="utf-8"?>
<!-- Generator: Adobe Illustrator 19.0.0, SVG Export Plug-In . SVG Version: 6.00 Build 0)  -->
<svg version="1.1"
	 id="svg2" xmlns:dc="http://purl.org/dc/elements/1.1/" xmlns:cc="http://creativecommons.org/ns#" xmlns:rdf="http://www.w3.org/1999/02/22-rdf-syntax-ns#" xmlns:svg="http://www.w3.org/2000/svg" xmlns:sodipodi="http://sodipodi.sourceforge.net/DTD/sodipodi-0.dtd" xmlns:inkscape="http://www.inkscape.org/namespaces/inkscape" sodipodi:docname="9_of_hearts.svg" inkscape:export-ydpi="215.44792" inkscape:version="0.48.0 r9654" inkscape:export-filename="/home/byron/art/cards/final/PNGs/9_of_hearts.png" inkscape:export-xdpi="215.44792"
	 xmlns="http://www.w3.org/2000/svg" xmlns:xlink="http://www.w3.org/1999/xlink" x="0px" y="0px" viewBox="-213 299.2 167.1 242.7"
	 style="enable-background:new -213 299.2 167.1 242.7;" xml:space="preserve">
<style type="text/css">
	.st0{fill:#EFC98B;stroke:#000000;stroke-width:0.5;}
	.st1{fill:#7A2F1D;}
	.st2{fill:#61A332;}
	.st3{fill:#187B3A;}
	.st4{fill:#B99117;}
	.st5{fill:#3C0927;}
	.st6{fill:#34AD37;}
	.st7{fill:#003D3E;}
	.st8{fill:#1E2346;}
	.st9{fill:#B41C31;}
	.st10{fill:#162C86;}
	.st11{fill:#101936;}
	.st12{fill:#DF0000;}
	.st13{font-family:'ArialMT';}
	.st14{font-size:32px;}
</style>
<sodipodi:namedview  id="namedview39" inkscape:cy="147.27218" inkscape:cx="-0.38353415" inkscape:zoom="1.7208768" showgrid="false" guidetolerance="10" gridtolerance="10" objecttolerance="10" borderopacity="1" bordercolor="#666666" pagecolor="#ffffff" inkscape:current-layer="svg2" inkscape:window-maximized="1" inkscape:window-y="25" inkscape:window-x="0" inkscape:window-width="1680" inkscape:window-height="977" inkscape:pageshadow="2" inkscape:pageopacity="0">
	</sodipodi:namedview>
<g id="Layer_x0020_1">
	<path id="path5" class="st0" d="M-46.2,534.8c0,3.8-3.1,6.9-6.9,6.9h-152.9c-3.8,0-6.9-3.1-6.9-6.9V306.3c0-3.8,3.1-6.9,6.9-6.9
		H-53c3.8,0,6.9,3.1,6.9,6.9V534.8z"/>
	<g id="g7">
		<g id="g9">
		</g>
	</g>
	<g id="g15">
	</g>
	<g id="g19">
	</g>
	<g id="g23">
		<g id="g25">
		</g>
	</g>
	<g id="g31">
		<g id="g33">
		</g>
	</g>
</g>
<g id="layer1-9-6" transform="matrix(1.6743072,0,0,1.5669921,17.177511,46.385321)">
	<path id="hl-8" sodipodi:nodetypes="scsscss" inkscape:connector-curvature="0" class="st1" d="M-123.5,182c-3.2,0-3.7,3.5-3.7,3.5
		s-0.4-3.5-3.7-3.5c-2.3,0-4.3,1.6-4.3,4.5c0,3.9,6.6,7.8,8,13.5c1.4-5.7,8-9.6,8-13.5C-119.2,183.5-121.3,182-123.5,182z"/>
</g>
<g id="layer1-9-6-5" transform="matrix(-1.6743072,0,0,-1.5669921,150.15601,195.14313)">
	<path id="hl-8-1" sodipodi:nodetypes="scsscss" inkscape:connector-curvature="0" class="st2" d="M130.9-200
		c-3.2,0-3.7,3.5-3.7,3.5s-0.4-3.5-3.7-3.5c-2.3,0-4.3,1.6-4.3,4.5c0,3.9,6.6,7.8,8,13.5c1.4-5.7,8-9.6,8-13.5
		C135.2-198.4,133.2-200,130.9-200z"/>
</g>
<g id="layer1-9-6-8" transform="matrix(2.7790082,0,0,2.600887,54.512268,30.003768)">
	<path id="hl-8-8" sodipodi:nodetypes="scsscss" inkscape:connector-curvature="0" class="st3" d="M-73,106c-3.2,0-3.7,3.5-3.7,3.5
		s-0.4-3.5-3.7-3.5c-2.3,0-4.3,1.6-4.3,4.5c0,3.9,6.6,7.8,8,13.5c1.4-5.7,8-9.6,8-13.5C-68.6,107.6-70.7,106-73,106z"/>
</g>
<g id="layer1-9-6-8-9" transform="matrix(-2.7790082,0,0,-2.600887,54.512268,212.80617)">
	<path id="hl-8-8-5" sodipodi:nodetypes="scsscss" inkscape:connector-curvature="0" class="st4" d="M80.3-124
		c-3.2,0-3.7,3.5-3.7,3.5S76.2-124,73-124c-2.3,0-4.3,1.6-4.3,4.5c0,3.9,6.6,7.8,8,13.5c1.4-5.7,8-9.6,8-13.5
		C84.6-122.5,82.6-124,80.3-124z"/>
</g>
<g id="layer1-9-6-8-8" transform="matrix(2.7790082,0,0,2.600887,54.512268,95.238623)">
	<path id="hl-8-8-8" sodipodi:nodetypes="scsscss" inkscape:connector-curvature="0" class="st5" d="M-73,106
		c-3.2,0-3.7,3.5-3.7,3.5s-0.4-3.5-3.7-3.5c-2.3,0-4.3,1.6-4.3,4.5c0,3.9,6.6,7.8,8,13.5c1.4-5.7,8-9.6,8-13.5
		C-68.6,107.6-70.7,106-73,106z"/>
</g>
<g id="layer1-9-6-8-884-8" transform="matrix(-2.7790082,0,0,-2.600887,54.512268,145.35601)">
	<path id="hl-8-8-3-8" sodipodi:nodetypes="scsscss" inkscape:connector-curvature="0" class="st6" d="M80.3-124
		c-3.2,0-3.7,3.5-3.7,3.5S76.2-124,73-124c-2.3,0-4.3,1.6-4.3,4.5c0,3.9,6.6,7.8,8,13.5c1.4-5.7,8-9.6,8-13.5
		C84.6-122.5,82.6-124,80.3-124z"/>
</g>
<g id="layer1-9-6-8-7" transform="matrix(2.7790082,0,0,2.600887,111.99088,30.602538)">
	<path id="hl-8-8-1" sodipodi:nodetypes="scsscss" inkscape:connector-curvature="0" class="st7" d="M-73,106
		c-3.2,0-3.7,3.5-3.7,3.5s-0.4-3.5-3.7-3.5c-2.3,0-4.3,1.6-4.3,4.5c0,3.9,6.6,7.8,8,13.5c1.4-5.7,8-9.6,8-13.5
		C-68.6,107.6-70.7,106-73,106z"/>
</g>
<g id="layer1-9-6-8-9-7" transform="matrix(-2.7790082,0,0,-2.600887,111.99088,213.40494)">
	<path id="hl-8-8-5-2" sodipodi:nodetypes="scsscss" inkscape:connector-curvature="0" class="st8" d="M80.3-124
		c-3.2,0-3.7,3.5-3.7,3.5S76.2-124,73-124c-2.3,0-4.3,1.6-4.3,4.5c0,3.9,6.6,7.8,8,13.5c1.4-5.7,8-9.6,8-13.5
		C84.6-122.5,82.6-124,80.3-124z"/>
</g>
<g id="layer1-9-6-8-8-7" transform="matrix(2.7790082,0,0,2.600887,111.99088,95.837397)">
	<path id="hl-8-8-8-2" sodipodi:nodetypes="scsscss" inkscape:connector-curvature="0" class="st9" d="M-73,106
		c-3.2,0-3.7,3.5-3.7,3.5s-0.4-3.5-3.7-3.5c-2.3,0-4.3,1.6-4.3,4.5c0,3.9,6.6,7.8,8,13.5c1.4-5.7,8-9.6,8-13.5
		C-68.6,107.6-70.7,106-73,106z"/>
</g>
<g id="layer1-9-6-8-884-8-2" transform="matrix(-2.7790082,0,0,-2.600887,111.99088,145.95478)">
	<path id="hl-8-8-3-8-6" sodipodi:nodetypes="scsscss" inkscape:connector-curvature="0" class="st10" d="M80.3-124
		c-3.2,0-3.7,3.5-3.7,3.5S76.2-124,73-124c-2.3,0-4.3,1.6-4.3,4.5c0,3.9,6.6,7.8,8,13.5c1.4-5.7,8-9.6,8-13.5
		C84.6-122.5,82.6-124,80.3-124z"/>
</g>
<g id="layer1-9-6-8-91" transform="matrix(2.7790082,0,0,2.600887,83.213391,62.704546)">
	<path id="hl-8-8-7" sodipodi:nodetypes="scsscss" inkscape:connector-curvature="0" class="st11" d="M-73,106
		c-3.2,0-3.7,3.5-3.7,3.5s-0.4-3.5-3.7-3.5c-2.3,0-4.3,1.6-4.3,4.5c0,3.9,6.6,7.8,8,13.5c1.4-5.7,8-9.6,8-13.5
		C-68.6,107.6-70.7,106-73,106z"/>
</g>
<text transform="matrix(1 0 0 1 -204.2561 327.2362)" class="st12 st13 st14">9</text>
<text transform="matrix(-1 0 0 -1 -54.1826 512.738)" class="st12 st13 st14">9</text>
</svg>
