<?xml version="1.0" encoding="utf-8"?>
<!-- Generator: Adobe Illustrator 19.0.0, SVG Export Plug-In . SVG Version: 6.00 Build 0)  -->
<svg version="1.1"
	 id="svg2" xmlns:dc="http://purl.org/dc/elements/1.1/" xmlns:cc="http://creativecommons.org/ns#" xmlns:rdf="http://www.w3.org/1999/02/22-rdf-syntax-ns#" xmlns:svg="http://www.w3.org/2000/svg" xmlns:sodipodi="http://sodipodi.sourceforge.net/DTD/sodipodi-0.dtd" xmlns:inkscape="http://www.inkscape.org/namespaces/inkscape" sodipodi:docname="A_of_hearts.svg" inkscape:export-ydpi="215.44792" inkscape:version="0.48.0 r9654" inkscape:export-filename="/home/byron/art/cards/final/PNGs/A_of_hearts.png" inkscape:export-xdpi="215.44792"
	 xmlns="http://www.w3.org/2000/svg" xmlns:xlink="http://www.w3.org/1999/xlink" x="0px" y="0px" viewBox="-213 299.2 167.1 242.7"
	 style="enable-background:new -213 299.2 167.1 242.7;" xml:space="preserve">
<style type="text/css">
	.st0{fill:#F2DF72;stroke:#000000;stroke-width:0.5;}
	.st1{fill:#DF0000;}
	.st2{font-family:'ArialMT';}
	.st3{font-size:32px;}
	.st4{fill:url(#hl_1_);}
	.st5{fill:url(#SVGID_1_);}
	.st6{fill:url(#SVGID_2_);}
	.st7{fill:#166634;}
	.st8{fill:#4FAAE0;}
	.st9{fill:#149B3A;}
</style>
<sodipodi:namedview  id="namedview39" inkscape:cy="147.27218" inkscape:cx="72.124594" inkscape:zoom="1.7208768" showgrid="false" guidetolerance="10" gridtolerance="10" objecttolerance="10" borderopacity="1" bordercolor="#666666" pagecolor="#ffffff" inkscape:current-layer="svg2" inkscape:window-maximized="1" inkscape:window-y="25" inkscape:window-x="0" inkscape:window-width="1680" inkscape:window-height="977" inkscape:pageshadow="2" inkscape:pageopacity="0">
	</sodipodi:namedview>
<g id="Layer_x0020_1">
	<path id="path5" class="st0" d="M-46.1,534.8c0,3.8-3.1,6.9-6.9,6.9h-152.9c-3.8,0-6.9-3.1-6.9-6.9V306.3c0-3.8,3.1-6.9,6.9-6.9
		h153c3.8,0,6.9,3.1,6.9,6.9v228.5H-46.1z"/>
	<g id="g7">
		<g id="g9">
		</g>
	</g>
	<g id="g15">
	</g>
	<g id="g19">
	</g>
	<g id="g23">
		<g id="g25">
		</g>
	</g>
	<g id="g31">
		<g id="g33">
		</g>
	</g>
</g>
<text transform="matrix(1 0 0 1 -206.7043 327.2263)" class="st1 st2 st3">A</text>
<g id="g3036" transform="matrix(0.19686979,0,0,0.19686979,11.54991,16.869674)">
	<g id="layer1-9" transform="matrix(34.670635,0,0,32.448413,363.65075,535.3979)">
		
			<radialGradient id="hl_1_" cx="-87.5353" cy="94.1243" r="8" gradientTransform="matrix(-46.5888 0 0 -70.1971 -4109.5718 6648.938)" gradientUnits="userSpaceOnUse">
			<stop  offset="0" style="stop-color:#DF0000"/>
			<stop  offset="1" style="stop-color:#DF0000;stop-opacity:0.6718"/>
		</radialGradient>
		<path id="hl" sodipodi:nodetypes="scsscss" inkscape:connector-curvature="0" class="st4" d="M-27.5,37.8c-3.2,0-3.7,3.5-3.7,3.5
			s-0.4-3.5-3.7-3.5c-2.3,0-4.3,1.6-4.3,4.5c0,3.9,6.6,7.8,8,13.5c1.4-5.7,8-9.6,8-13.5C-23.2,39.4-25.3,37.8-27.5,37.8z"/>
	</g>
	<g id="path3762-6-4" sodipodi:nodetypes="cscsc" inkscape:connector-curvature="0">
		
			<radialGradient id="SVGID_1_" cx="17699.377" cy="60799.6484" r="81.9028" gradientTransform="matrix(6.632543e-02 -4.014175e-02 2.271877e-02 4.024019e-02 -3471.0854 101.8564)" gradientUnits="userSpaceOnUse">
			<stop  offset="0" style="stop-color:#FFFFFF;stop-opacity:0.313"/>
			<stop  offset="1" style="stop-color:#000000;stop-opacity:0"/>
		</radialGradient>
		<path class="st5" d="M-988.2,1998c0,0-12-145.9,33.9-188.8c51.6-48.2,207.8-17.6,207.8-17.6s-106.2,38.2-148.4,74.7
			C-935.3,1901.2-988.2,1998-988.2,1998z"/>
	</g>
	<g id="path3762-6-2-3" sodipodi:nodetypes="cscsc" inkscape:connector-curvature="0">
		
			<radialGradient id="SVGID_2_" cx="34191.4727" cy="58278.2109" r="81.9028" gradientTransform="matrix(5.782066e-02 -2.458904e-02 1.158057e-02 4.150015e-02 -3303.9497 241.61)" gradientUnits="userSpaceOnUse">
			<stop  offset="0" style="stop-color:#FFFFFF;stop-opacity:0.2901"/>
			<stop  offset="1" style="stop-color:#000000;stop-opacity:0"/>
		</radialGradient>
		<path class="st6" d="M-722.4,1954.5c0,0,22-135.8,66.8-164.5c50.4-32.2,165.2,31.3,165.2,31.3s-85,30.6-125.6,54.3
			C-654.8,1898.2-722.4,1954.5-722.4,1954.5z"/>
	</g>
</g>
<g id="layer1-9-6" transform="matrix(1.6743072,0,0,1.5669921,17.177511,46.385321)">
	<path id="hl-8" sodipodi:nodetypes="scsscss" inkscape:connector-curvature="0" class="st7" d="M-123.5,182c-3.2,0-3.7,3.5-3.7,3.5
		s-0.4-3.5-3.7-3.5c-2.3,0-4.3,1.6-4.3,4.5c0,3.9,6.6,7.8,8,13.5c1.4-5.7,8-9.6,8-13.5C-119.2,183.5-121.3,182-123.5,182z"/>
</g>
<text transform="matrix(-1 0 0 -1 -51.8623 512.7285)" class="st8 st2 st3">A</text>
<g id="layer1-9-6-5" transform="matrix(-1.6743072,0,0,-1.5669921,150.15601,195.14313)">
	<path id="hl-8-1" sodipodi:nodetypes="scsscss" inkscape:connector-curvature="0" class="st9" d="M130.9-200
		c-3.2,0-3.7,3.5-3.7,3.5s-0.4-3.5-3.7-3.5c-2.3,0-4.3,1.6-4.3,4.5c0,3.9,6.6,7.8,8,13.5c1.4-5.7,8-9.6,8-13.5
		C135.2-198.4,133.2-200,130.9-200z"/>
</g>
</svg>
