<?xml version="1.0" encoding="utf-8"?>
<!-- Generator: Adobe Illustrator 19.0.0, SVG Export Plug-In . SVG Version: 6.00 Build 0)  -->
<svg version="1.1"
	 id="svg2" inkscape:export-ydpi="215.44792" inkscape:export-filename="/home/byron/art/cards/final/PNGs/ace_of_diamonds.png" sodipodi:docname="ace_of_diamonds.svg" inkscape:export-xdpi="215.44792" inkscape:version="0.48.0 r9654" xmlns:dc="http://purl.org/dc/elements/1.1/" xmlns:cc="http://creativecommons.org/ns#" xmlns:rdf="http://www.w3.org/1999/02/22-rdf-syntax-ns#" xmlns:svg="http://www.w3.org/2000/svg" xmlns:sodipodi="http://sodipodi.sourceforge.net/DTD/sodipodi-0.dtd" xmlns:inkscape="http://www.inkscape.org/namespaces/inkscape"
	 xmlns="http://www.w3.org/2000/svg" xmlns:xlink="http://www.w3.org/1999/xlink" x="0px" y="0px" viewBox="-213 299.2 167.1 242.7"
	 style="enable-background:new -213 299.2 167.1 242.7;" xml:space="preserve">
<style type="text/css">
	.st0{fill:#EADA7F;stroke:#000000;stroke-width:0.5;}
	.st1{fill:#CA5098;}
	.st2{font-family:'ArialMT';}
	.st3{font-size:32px;}
	.st4{fill:#E14C95;}
	.st5{fill:url(#dl_1_);}
	.st6{filter:url(#filter3834-6-0);}
	.st7{fill:url(#SVGID_1_);}
	.st8{fill:#84CAB7;}
	.st9{fill:#60A6DB;}
</style>
<filter  id="filter3834-6-0" x="-0.13934441" y="-0.16242018" height="1.3248404" width="1.2786888" inkscape:collect="always" color-interpolation-filters="sRGB">
	<feGaussianBlur  stdDeviation="9.5105772" id="feGaussianBlur3836-6-6" inkscape:collect="always"></feGaussianBlur>
</filter>
<sodipodi:namedview  id="namedview39" inkscape:current-layer="svg2" inkscape:window-maximized="1" inkscape:window-y="25" inkscape:window-x="0" inkscape:window-height="977" inkscape:window-width="1680" inkscape:pageshadow="2" inkscape:pageopacity="0" inkscape:cy="147.27218" inkscape:cx="72.124594" inkscape:zoom="1.7208768" showgrid="false" guidetolerance="10" gridtolerance="10" objecttolerance="10" borderopacity="1" pagecolor="#ffffff" bordercolor="#666666">
	</sodipodi:namedview>
<g id="Layer_x0020_1">
	<path id="path5" class="st0" d="M-46.2,534.8c0,3.8-3.1,6.9-6.9,6.9h-152.9c-3.8,0-6.9-3.1-6.9-6.9V306.3c0-3.8,3.1-6.9,6.9-6.9
		H-53c3.8,0,6.9,3.1,6.9,6.9V534.8z"/>
	<g id="g7">
		<g id="g9">
		</g>
	</g>
	<g id="g15">
	</g>
	<g id="g19">
	</g>
	<g id="g23">
		<g id="g25">
		</g>
	</g>
	<g id="g31">
		<g id="g33">
		</g>
	</g>
</g>
<text transform="matrix(1 0 0 1 -206.7543 327.2363)" class="st1 st2 st3">A</text>
<text transform="matrix(-1 0 0 -1 -51.9121 512.738)" class="st4 st2 st3">A</text>
<g id="g3011" transform="matrix(0.17001436,0,0,0.17001436,19.517107,29.794341)">
	<g id="layer1-2" transform="matrix(35.005102,0,0,35.005102,369.18369,512.27289)">
		
			<radialGradient id="dl_1_" cx="-90.727" cy="126.8276" r="8" gradientTransform="matrix(-6.6799 3.281544e-02 5.409634e-02 11.0119 -648.6994 -1347.5995)" gradientUnits="userSpaceOnUse">
			<stop  offset="0" style="stop-color:#DF0000"/>
			<stop  offset="1" style="stop-color:#DF0000;stop-opacity:0.6412"/>
		</radialGradient>
		<path id="dl" sodipodi:nodetypes="ccccccccc" inkscape:connector-curvature="0" class="st5" d="M-32.5,45.6
			c-2.1-2.9-3.2-5.8-3.2-5.8s-1.1,2.9-3.2,5.8c-2.1,2.9-4.8,4.7-4.8,4.7s2.6,1.9,4.8,4.7c2.1,2.9,3.2,5.8,3.2,5.8s1.1-2.9,3.2-5.8
			c2.1-2.9,4.8-4.7,4.8-4.7S-30.4,48.4-32.5,45.6z"/>
	</g>
	<g id="path3762-6" sodipodi:nodetypes="cscsc" inkscape:connector-curvature="0" class="st6">
		
			<radialGradient id="SVGID_1_" cx="-1250.7528" cy="12405.751" r="81.9028" gradientTransform="matrix(-0.2591 0.2203 0.1265 0.1584 -2852.1943 500.0763)" gradientUnits="userSpaceOnUse">
			<stop  offset="0" style="stop-color:#FFFFFF;stop-opacity:0.4351"/>
			<stop  offset="1" style="stop-color:#000000;stop-opacity:0"/>
		</radialGradient>
		<path class="st7" d="M-912.7,2019.6c0,0,35.1,142.2-3.3,191.8c-43.2,55.8-202.3,50.5-202.3,50.5s98.7-54.6,134.6-97.4
			C-949.4,2123.7-912.7,2019.6-912.7,2019.6z"/>
	</g>
</g>
<g id="layer1-2-6" transform="matrix(1.4769065,0,0,1.4769065,16.968095,44.236162)">
	<path id="dl-6" sodipodi:nodetypes="ccccccccc" inkscape:connector-curvature="0" class="st8" d="M-141,197.9
		c-2.1-2.9-3.2-5.8-3.2-5.8s-1.1,2.9-3.2,5.8c-2.1,2.9-4.8,4.7-4.8,4.7s2.6,1.9,4.8,4.7c2.1,2.9,3.2,5.8,3.2,5.8s1.1-2.9,3.2-5.8
		c2.1-2.9,4.8-4.7,4.8-4.7S-138.9,200.7-141,197.9z"/>
</g>
<g id="layer1-2-6-4" transform="matrix(1.4769065,0,0,1.4769065,150.62089,198.50346)">
	<path id="dl-6-9" sodipodi:nodetypes="ccccccccc" inkscape:connector-curvature="0" class="st9" d="M-141,197.9
		c-2.1-2.9-3.2-5.8-3.2-5.8s-1.1,2.9-3.2,5.8c-2.1,2.9-4.8,4.7-4.8,4.7s2.6,1.9,4.8,4.7c2.1,2.9,3.2,5.8,3.2,5.8s1.1-2.9,3.2-5.8
		c2.1-2.9,4.8-4.7,4.8-4.7S-138.9,200.7-141,197.9z"/>
</g>
</svg>
