<?xml version="1.0" encoding="utf-8"?>
<!-- Generator: Adobe Illustrator 19.0.0, SVG Export Plug-In . SVG Version: 6.00 Build 0)  -->
<svg version="1.1"
	 id="svg2" sodipodi:docname="Q_of_spades.svg" inkscape:version="0.48.0 r9654" xmlns:dc="http://purl.org/dc/elements/1.1/" xmlns:cc="http://creativecommons.org/ns#" xmlns:rdf="http://www.w3.org/1999/02/22-rdf-syntax-ns#" xmlns:svg="http://www.w3.org/2000/svg" xmlns:sodipodi="http://sodipodi.sourceforge.net/DTD/sodipodi-0.dtd" xmlns:inkscape="http://www.inkscape.org/namespaces/inkscape"
	 xmlns="http://www.w3.org/2000/svg" xmlns:xlink="http://www.w3.org/1999/xlink" x="0px" y="0px" viewBox="-213 299.2 167.1 242.7"
	 style="enable-background:new -213 299.2 167.1 242.7;" xml:space="preserve">
<style type="text/css">
	.st0{fill:#F4D47A;stroke:#000000;stroke-width:0.5;}
	.st1{fill:url(#sl-5_1_);}
	.st2{filter:url(#filter3803);}
	.st3{fill:url(#SVGID_1_);}
	.st4{filter:url(#filter3803-1);}
	.st5{fill:url(#SVGID_2_);}
	.st6{filter:url(#filter3803-73);}
	.st7{fill:url(#SVGID_3_);}
	.st8{fill:#E8E73D;}
	.st9{fill:#811D48;}
	.st10{font-family:'ArialMT';}
	.st11{font-size:32px;}
	.st12{fill:#0A6133;}
	.st13{fill:#7E1929;}
	.st14{fill:#136936;}
	.st15{font-family:'AdobeMingStd-Light-B5pc-H';}
	.st16{font-size:18px;}
</style>
<filter  id="filter3803-73" x="-0.33068925" y="-0.16436553" height="1.3287311" width="1.6613785" inkscape:collect="always" color-interpolation-filters="sRGB">
	<feGaussianBlur  stdDeviation="14.131424" id="feGaussianBlur3805-2" inkscape:collect="always"></feGaussianBlur>
</filter>
<filter  id="filter3803-1" x="-0.33068925" y="-0.16436553" height="1.3287311" width="1.6613785" inkscape:collect="always" color-interpolation-filters="sRGB">
	<feGaussianBlur  stdDeviation="14.131424" id="feGaussianBlur3805-8" inkscape:collect="always"></feGaussianBlur>
</filter>
<filter  id="filter3803" x="-0.33068925" y="-0.16436553" height="1.3287311" width="1.6613785" inkscape:collect="always" color-interpolation-filters="sRGB">
	<feGaussianBlur  stdDeviation="14.131424" id="feGaussianBlur3805" inkscape:collect="always"></feGaussianBlur>
</filter>
<sodipodi:namedview  id="namedview39" inkscape:current-layer="svg2" inkscape:window-maximized="1" inkscape:window-y="25" inkscape:window-x="0" inkscape:window-height="977" inkscape:window-width="1680" inkscape:pageshadow="2" inkscape:pageopacity="0" inkscape:cy="240.70736" inkscape:cx="100.52062" inkscape:zoom="3.4417536" showgrid="false" guidetolerance="10" gridtolerance="10" objecttolerance="10" borderopacity="1" pagecolor="#ffffff" bordercolor="#666666">
	</sodipodi:namedview>
<g id="Layer_x0020_1">
	<path id="path5" class="st0" d="M-48.4,533.5c0,3.8-3.1,6.9-6.9,6.9h-152.9c-3.8,0-6.9-3.1-6.9-6.9V305.1c0-3.8,3.1-6.9,6.9-6.9
		h152.9c3.8,0,6.9,3.1,6.9,6.9V533.5z"/>
	<g id="g7">
		<g id="g9">
		</g>
	</g>
	<g id="g15">
	</g>
	<g id="g19">
	</g>
	<g id="g23">
		<g id="g25">
		</g>
	</g>
	<g id="g31">
		<g id="g33">
		</g>
	</g>
</g>
<g id="g3886" transform="matrix(0.19861112,0,0,0.19861112,10.083458,15.428884)">
	<g id="layer1-7-1" transform="matrix(31.754082,0,0,29.033123,371.73772,526.70948)">
		
			<radialGradient id="sl-5_1_" cx="-84.3219" cy="130.1877" r="7.9997" gradientTransform="matrix(-9.9915 -0.1482 -0.1771 14.2864 -853.4871 -1825.3456)" gradientUnits="userSpaceOnUse">
			<stop  offset="0" style="stop-color:#000000"/>
			<stop  offset="1" style="stop-color:#000000;stop-opacity:0.6489"/>
		</radialGradient>
		<path id="sl-5" sodipodi:nodetypes="cccccccccc" inkscape:connector-curvature="0" class="st1" d="M-25.8,55
			c-0.2-4.1-7.7-11.7-8-13.6c-0.2,1.9-7.7,9.5-8,13.6c-0.2,2.9,1.7,4.1,3.4,4.1c1.8,0,3.4-2.8,3.9-3.3c0.2,0.7-1.6,6.7-2.2,6.7h5.8
			c-0.6,0-2.4-6-2.2-6.7c0.5,0.5,1.8,3.3,3.9,3.3C-27.5,59.1-25.6,57.9-25.8,55z"/>
	</g>
	<g id="path3762-6" sodipodi:nodetypes="cscsc" inkscape:connector-curvature="0" class="st2">
		
			<radialGradient id="SVGID_1_" cx="-3219.428" cy="-4141.4824" r="81.9028" gradientTransform="matrix(0.2023 -0.514 -0.253 -9.582448e-02 -1312.6769 57.9808)" gradientUnits="userSpaceOnUse">
			<stop  offset="0" style="stop-color:#FFFFFF;stop-opacity:0.4351"/>
			<stop  offset="1" style="stop-color:#000000;stop-opacity:0"/>
		</radialGradient>
		<path class="st3" d="M-882.6,2266.7c0,0-109.1-88.6-95.8-166.1c14.9-87.2,150.8-274.9,150.8-274.9s-20.3,222-35.2,290.3
			C-876.9,2181.2-882.6,2266.7-882.6,2266.7z"/>
	</g>
	<g id="path3762-6-0" sodipodi:nodetypes="cscsc" inkscape:connector-curvature="0" class="st4">
		
			<radialGradient id="SVGID_2_" cx="-1761.4282" cy="-2792.041" r="81.9028" gradientTransform="matrix(0.4471 -0.4775 -0.2866 -0.2997 -859.1825 314.833)" gradientUnits="userSpaceOnUse">
			<stop  offset="0" style="stop-color:#FFFFFF;stop-opacity:0.4885"/>
			<stop  offset="1" style="stop-color:#000000;stop-opacity:0"/>
		</radialGradient>
		<path class="st5" d="M-861.8,2207.5c0,0-106.1-186.6-60.6-271.1c51.1-95,293.4-224.5,293.4-224.5s-107.8,254.8-151.9,327
			C-823,2107.8-861.8,2207.5-861.8,2207.5z"/>
	</g>
	<g id="path3762-6-2" sodipodi:nodetypes="cscsc" inkscape:connector-curvature="0" class="st6">
		
			<radialGradient id="SVGID_3_" cx="-1904.2443" cy="-5175.4336" r="81.9028" gradientTransform="matrix(0.3963 -0.3848 -0.1909 -0.1917 -995.0592 164.0978)" gradientUnits="userSpaceOnUse">
			<stop  offset="0" style="stop-color:#FFFFFF;stop-opacity:0.2366"/>
			<stop  offset="1" style="stop-color:#000000;stop-opacity:0"/>
		</radialGradient>
		<path class="st7" d="M-795.8,2045.6c0,0-62.8-125.7-18.7-190.8c49.5-73.3,250.8-188.2,250.8-188.2s-110.1,193.9-151.8,249.9
			C-755.3,1970.1-795.8,2045.6-795.8,2045.6z"/>
	</g>
	<path id="rect3865" inkscape:connector-curvature="0" class="st8" d="M-1052.5,1613.2v854.3h677.2v-854.3
		C-375.3,1613.2-1052.5,1613.2-1052.5,1613.2z M-700.7,1728.4c7.7,55.5,246,277.2,253.7,394.9c5.4,83.3-53.8,117.8-107.6,117.8
		c-65.9-2.4-108.5-82.6-123-97c-7.7,20.8,50.9,194,69.2,194H-793c18.3,0,76.9-173.2,69.2-194c-16.6,15.7-64.7,96.4-123,97
		c-53.8,0-113-34.5-107.6-117.8C-946.7,2005.6-708.4,1783.9-700.7,1728.4z"/>
</g>
<text transform="matrix(-1 0 0 -1 -50 514.0876)" class="st9 st10 st11">Q</text>
<g id="layer1-7-8" transform="matrix(-1.5085945,0,0,-1.3793253,150.22472,198.04381)">
	<path id="sl-0" sodipodi:nodetypes="cccccccccc" inkscape:connector-curvature="0" class="st12" d="M149.2-213.8
		c-0.2-4.1-7.7-11.7-8-13.6c-0.2,1.9-7.7,9.5-8,13.6c-0.2,2.9,1.7,4.1,3.4,4.1c1.8,0,3.4-2.8,3.9-3.3c0.2,0.7-1.6,6.7-2.2,6.7h5.8
		c-0.6,0-2.4-6-2.2-6.7c0.5,0.5,1.8,3.3,3.9,3.3C147.5-209.8,149.3-211,149.2-213.8z"/>
</g>
<text transform="matrix(1 0 0 1 -207.9165 327.4688)" class="st13 st10 st11">Q</text>
<g id="layer1-7" transform="matrix(1.5085945,0,0,1.3793253,16.929041,45.066155)">
	<path id="sl" sodipodi:nodetypes="cccccccccc" inkscape:connector-curvature="0" class="st14" d="M-133.2,220
		c-0.2-4.1-7.7-11.7-8-13.6c-0.2,1.9-7.7,9.5-8,13.6c-0.2,2.9,1.7,4.1,3.4,4.1c1.8,0,3.4-2.8,3.9-3.3c0.2,0.7-1.6,6.7-2.2,6.7h5.8
		c-0.6,0-2.4-6-2.2-6.7c0.5,0.5,1.8,3.3,3.9,3.3C-134.9,224.1-133,222.9-133.2,220z"/>
</g>
<text transform="matrix(0.9542 -0.2991 0.2991 0.9542 -121.8011 335.8336)" class="st15 st16">QUEEN</text>
<text transform="matrix(0.9542 -0.2991 0.2991 0.9542 -198.9459 533.2896)" class="st15 st16">QUEEN</text>
</svg>
